<?xml version="1.0" encoding="utf-8"?>
<!-- Generator: Adobe Illustrator 16.0.0, SVG Export Plug-In . SVG Version: 6.00 Build 0)  -->
<!DOCTYPE svg PUBLIC "-//W3C//DTD SVG 1.1//EN" "http://www.w3.org/Graphics/SVG/1.1/DTD/svg11.dtd">
<svg version="1.1" id="Layer_1" xmlns="http://www.w3.org/2000/svg" xmlns:xlink="http://www.w3.org/1999/xlink" x="0px" y="0px"
	 width="180px" height="50px" viewBox="0 0 180 50" enable-background="new 0 0 180 50" xml:space="preserve">
<g>
	<g>
		<path fill="#E9E9E9" d="M168.752,7.856h-2.498v6.467h-1.16V7.856h-2.5v-1.16h6.158V7.856z M178.391,14.323h-1.16V7.856h-0.035
			l-2.609,6.467h-0.707l-2.535-6.467h-0.037v6.467h-1.158V6.697h1.902l2.191,5.38l2.264-5.38h1.885V14.323z"/>
	</g>
	<path fill="#E9E9E9" d="M26.991,21.236c-1.773-1.235-4.242-2.417-6.336-2.364c-4.457,0-7.518,3.706-7.518,7.948
		c0,4.243,3.061,7.733,7.518,7.733c1.074,0,1.933-0.216,2.417-0.644V30.9h-3.707c-0.752,0-1.611,0.107-2.255,0.377v-9.237
		c0.645,0.269,1.503,0.375,2.255,0.375h14.661v15.251c0,1.289,0.375,2.363,0.966,3.437c-2.953,3.007-8.539,5.584-14.607,5.584
		C9.377,46.688,1,37.507,1,26.713C1,15.919,9.377,6.736,19.957,6.736c0.805,0,1.449,0.106,2.041,0.214
		c0.591,0.108,1.181,0.215,1.825,0.215c1.074,0,2.202-0.107,3.169-0.43V21.236z"/>
	<path fill="#E9E9E9" d="M55.363,7.595l12.726,34.904c0.538,1.45,1.343,2.473,2.203,3.33H54.826
		c0.268-0.592,0.376-1.342,0.376-2.041c0-1.18-0.43-2.308-0.806-3.435H43.871c-0.589,0.966-0.912,2.361-0.912,3.488
		c0,0.59,0.162,1.396,0.59,1.719v0.269H27.976c1.396-1.342,2.041-3.275,2.793-5.315l10.632-28.838
		c0.214-0.59,0.537-1.718,0.537-2.362c0-0.859-0.537-1.288-1.182-1.718H55.363z M51.658,31.546l-2.524-11.761h-0.214l-2.417,11.761
		H51.658z"/>
	<path fill="#E9E9E9" d="M63.34,45.829c0.913-0.966,1.235-2.363,1.235-3.543V6.736c0.859,0.752,2.041,1.235,3.437,1.235
		c2.309,0,4.887-1.235,9.236-1.235c9.075,0,16.809,5.262,16.809,14.982c0,8.376-6.66,14.606-14.875,14.606
		c-0.752,0-1.558-0.056-2.471-0.161v6.122c0,1.18,0.322,2.577,1.235,3.543H63.34z M76.711,25.961h1.396
		c2.416,0,4.35-1.343,4.35-4.136c0-2.792-1.935-4.134-4.35-4.134h-1.396V25.961z"/>
	<path fill="#E9E9E9" d="M105.031,16.771v24.627c0,1.479,0.406,3.224,1.545,4.432H91.271c1.141-1.208,1.543-2.953,1.543-4.432
		V21.202c0-1.478-0.402-3.223-1.543-4.431H105.031z M105.369,8.044c0,3.625-2.955,6.175-6.176,6.175
		c-3.223,0-6.178-2.551-6.178-6.175c0-3.625,2.955-6.176,6.178-6.176C102.414,1.868,105.369,4.418,105.369,8.044z"/>
	<path fill="#E9E9E9" d="M128.9,46.688c-0.482-0.162-1.02-0.267-1.557-0.322c-0.537-0.105-1.072-0.105-1.611-0.105
		c-0.645,0-1.234,0.105-1.824,0.215c-0.592,0.107-1.236,0.213-2.043,0.213c-11.01,0-19.383-9.181-19.383-19.975
		c0-10.793,8.373-19.977,19.383-19.977c0.807,0,1.451,0.106,2.043,0.214c0.59,0.108,1.18,0.215,1.824,0.215
		c1.074,0,2.203-0.107,3.168-0.43V21.88c-1.771-1.879-4.24-3.062-6.766-3.008c-4.457,0-7.518,3.706-7.518,7.948
		c0,4.243,3.061,7.733,7.518,7.733c2.525,0,4.994-1.182,6.766-3.328V46.688z"/>
	<path fill="#E9E9E9" d="M165.111,26.404c0,10.793-8.379,19.976-19.385,19.976c-11.01,0-19.387-9.183-19.387-19.976
		c0-10.794,8.377-19.977,19.387-19.977C156.732,6.428,165.111,15.61,165.111,26.404z M145.727,34.243
		c3.973,0,7.248-3.221,7.248-7.839c0-4.619-3.275-7.841-7.248-7.841s-7.252,3.222-7.252,7.841
		C138.475,31.022,141.754,34.243,145.727,34.243z"/>
</g>
</svg>
