<?xml version="1.0" encoding="utf-8"?>
<!-- Generator: Adobe Illustrator 16.0.0, SVG Export Plug-In . SVG Version: 6.00 Build 0)  -->
<!DOCTYPE svg PUBLIC "-//W3C//DTD SVG 1.1//EN" "http://www.w3.org/Graphics/SVG/1.1/DTD/svg11.dtd">
<svg version="1.1" id="Layer_1" xmlns="http://www.w3.org/2000/svg" xmlns:xlink="http://www.w3.org/1999/xlink" x="0px" y="0px"
	 width="180px" height="50px" viewBox="0 0 180 50" enable-background="new 0 0 180 50" xml:space="preserve">
<path fill="#E9E9E9" d="M145.727,6.427c-7.365,0-13.537,4.12-16.826,10.072V6.736c-0.965,0.323-2.094,0.43-3.168,0.43
	c-0.645,0-1.234-0.107-1.824-0.215c-0.592-0.108-1.236-0.214-2.043-0.214c-1.195,0-2.355,0.119-3.48,0.327
	c0.014,0.034,0.04,0.057,0.038,0.103c-0.041-0.044-0.106-0.065-0.18-0.078c-1.546,0.297-3.017,0.779-4.396,1.423
	c0.015,0.005,0.032,0.01,0.046,0.014c-0.087,0.101-0.236,0.14-0.404,0.161c-2.581,1.274-4.82,3.114-6.595,5.354
	c0.271-0.022,0.527,0.043,0.746,0.284c-0.213,0.239-0.015,0.618,0,0.906c-0.194,0.168-0.664,0.061-0.997,0.091
	c0.039-0.112,0.116-0.187,0.271-0.182c-0.21-0.252-0.407-0.298-0.631-0.293c-0.453,0.635-0.874,1.295-1.253,1.982v-0.058H93.295
	c-2.159-6.544-8.657-10.035-16.047-10.035c-4.349,0-6.927,1.235-9.236,1.235c-1.396,0-2.578-0.483-3.437-1.235v2.611
	c0.102-0.058,0.267-0.054,0.203-0.278c0.229,0.133,0.32,0.405,0.453,0.634c-0.259,0.235-0.4-0.11-0.656-0.169v23.328l-5.903-16.19
	c0.028,0.192,0.022,0.394-0.056,0.553c-0.348-0.013-0.078-0.504-0.015-0.746l-3.239-8.884v0.001h-9.766
	C45.56,7.667,45.5,7.715,45.386,7.709c0-0.038,0-0.076,0-0.113h-4.63c0.645,0.43,1.182,0.859,1.182,1.718
	c0,0.644-0.323,1.772-0.537,2.362l-4.549,12.339c0.091,0.068,0.205,0.112,0.379,0.096c-0.216,0.116-0.473,0.192-0.362,0.634
	c-0.129,0.03-0.235,0.083-0.337,0.14l-1.95,5.291c0.102,0.028,0.137,0.124,0.294,0.098c-0.012,0.193-0.239,0.202-0.367,0.099
	l-0.482,1.308v-9.265h-8.453c0.254,0.163,0.417,0.42,0.33,0.791c-0.521,0.29-0.868,0.344-1.631,0.271
	c0.002-0.088,0.11-0.07,0.181-0.09c0.268-0.079-0.21-0.136-0.091-0.363c0.163,0.012,0.191-0.111,0.362-0.09
	c0.037,0.218-0.166,0.197-0.09,0.453c0.41,0.138,0.196-0.348,0.362-0.453c-0.024-0.187-0.401-0.022-0.362-0.272
	c-0.092,0.059-0.094,0.208-0.272,0.181c0.027-0.239-0.189-0.233-0.362-0.271c0.035-0.062,0.093-0.11,0.152-0.156h-4.788
	c-0.752,0-1.61-0.106-2.255-0.375v9.237c0.644-0.271,1.503-0.377,2.255-0.377h3.707v3.009c-0.484,0.428-1.343,0.644-2.417,0.644
	c-4.457,0-7.518-3.49-7.518-7.732s3.061-7.948,7.518-7.948c0.737-0.019,1.521,0.122,2.304,0.357
	c0.062-0.107,0.135-0.205,0.317-0.192c0,0.098,0,0.195,0,0.293c1.335,0.447,2.651,1.164,3.716,1.906h0.001v-1.473
	c-0.051,0.01-0.111,0.01-0.183-0.001c0.007-0.152,0.08-0.238,0.183-0.295V6.735c-0.967,0.323-2.095,0.43-3.169,0.43
	c-0.644,0-1.234-0.107-1.825-0.215c-0.014-0.002-0.03-0.005-0.044-0.008c-0.015,0.076-0.032,0.152-0.038,0.224
	c-0.106-0.133-0.33-0.147-0.415-0.301c-0.458-0.073-0.958-0.129-1.544-0.129c-7.719,0-14.248,4.897-17.224,11.732
	c0.018,0.011,0.033,0.025,0.062,0.025c0.081-0.04,0.162-0.08,0.181-0.181c0.146,0.089,0.208,0.242,0.091,0.362
	c-0.106-0.056-0.282-0.043-0.38-0.106C1.612,21.076,1,23.833,1,26.713c0,6.248,2.818,11.941,7.317,15.641
	c0.038-0.156,0.125-0.324,0.006-0.3c0.185-0.289,0.228,0.198,0.16,0.431c3.248,2.611,7.342,4.203,11.901,4.203
	c1.656,0,3.266-0.21,4.806-0.551c-0.005-0.001-0.007-0.005-0.012-0.006c0.107-0.252,0.353-0.172,0.525-0.119
	c0.113-0.028,0.227-0.054,0.339-0.083c-0.065-0.022-0.122-0.049-0.14-0.069c-0.044-0.178,0.416-0.291,0.453-0.09
	c0.012,0.043-0.007,0.059-0.014,0.086c0.776-0.215,1.535-0.454,2.256-0.735c-0.192,0.249-0.395,0.489-0.623,0.709h15.573v-0.269
	c-0.363-0.275-0.526-0.891-0.57-1.433c-0.025-0.015-0.059-0.021-0.13,0.011c-0.017-0.285,0.042-0.494,0.135-0.669
	c0.06-1.052,0.36-2.253,0.887-3.116h10.525c0.376,1.127,0.806,2.254,0.806,3.435c0,0.698-0.108,1.448-0.376,2.041h11.006
	c-0.005-0.062-0.022-0.127-0.057-0.241c0.133-0.062,0.201,0.084,0.208,0.241h4.309c0,0,0-0.001-0.001-0.001h3.13
	c-0.041-0.02-0.068-0.042-0.125-0.059c0.413-0.204,0.23-0.363,0.271-0.635c0.212,0,0.423,0,0.634,0
	c0.204,0.155,0.26,0.435,0.204,0.693h3.54c-0.913-0.967-1.235-2.363-1.235-3.543v-6.122c0.913,0.104,1.719,0.161,2.471,0.161
	c6.101,0,11.338-3.44,13.632-8.641v13.715c0,1.479-0.402,3.224-1.543,4.432h7.531c0.018-0.02,0.023-0.043,0.048-0.061
	c0.032,0.013,0.048,0.034,0.058,0.061h0.248c-0.025-0.196-0.038-0.379,0.237-0.424c-0.042,0.144-0.034,0.283-0.022,0.424h7.205
	c-1.139-1.208-1.545-2.953-1.545-4.432v-3.266c-0.037,0.011-0.065,0.008-0.109,0.024c-0.011-0.066,0.037-0.13,0.109-0.181v-1.378
	c3.285,5.963,9.461,10.091,16.834,10.091c0.807,0,1.451-0.106,2.043-0.213c0.59-0.11,1.179-0.216,1.824-0.216
	c0.539,0,1.074,0,1.61,0.105c0.537,0.055,1.075,0.159,1.558,0.321v-0.819c-0.085,0.264-0.498,0.343-0.509-0.009
	c0.102-0.098,0.3-0.1,0.509-0.09v-9.461c3.289,5.952,9.461,10.071,16.826,10.071c11.006,0,19.385-9.183,19.385-19.976
	C165.111,15.61,156.732,6.428,145.727,6.427z M24.997,16.681c-0.044-0.178,0.416-0.292,0.453-0.09
	C25.537,16.917,25.059,16.75,24.997,16.681z M26.719,16.59c-0.061,0.198-0.475,0.002-0.362-0.272
	C26.647,16.239,26.544,16.553,26.719,16.59z M25.722,9.884c-0.255-0.017-0.386-0.157-0.363-0.453
	C25.758,9.316,25.936,9.66,25.722,9.884z M25.45,14.325c-0.226,0.014-0.28-0.143-0.453-0.181c-0.012-0.163,0.111-0.191,0.09-0.363
	C25.334,13.836,25.443,14.03,25.45,14.325z M25.178,8.525c-0.009,0.23-0.337,0.214-0.453,0.09
	C24.808,8.458,25.043,8.381,25.178,8.525z M24.906,13.418c-0.218-0.037-0.197,0.166-0.453,0.091
	c-0.008-0.144,0.043-0.346-0.091-0.362C24.524,12.905,24.96,13.146,24.906,13.418z M24.091,15.231
	c-0.255,0.013-0.261-0.222-0.271-0.453C24.102,14.736,24.109,14.972,24.091,15.231z M23.003,13.6c0.097-0.358,0.275,0.023,0.544,0
	C23.509,13.802,23.066,13.671,23.003,13.6z M23.457,10.065c-0.009,0.231-0.337,0.214-0.453,0.091
	C23.013,9.926,23.341,9.942,23.457,10.065z M21.916,11.062c0.403-0.047,0.851,0.196,1.087,0.181c0.403,0.532-1.04,0.041-0.906,0.363
	c-0.026,0.337-0.225-0.267,0-0.182C22.209,11.132,21.804,11.356,21.916,11.062z M20.919,11.244c0.038,0.189-0.062,0.24-0.091,0.363
	c-0.304-0.028-0.361-0.303-0.453-0.544C20.821,10.975,20.512,11.502,20.919,11.244z M20.013,7.166
	c-0.112,0.152-0.264,0.462-0.453,0.271C19.615,7.25,19.7,7.095,20.013,7.166z M18.835,7.891c0.212,0.023,0.052,0.398,0,0.453
	C18.517,8.272,18.73,8.027,18.835,7.891z M18.11,7.8c-0.179-0.062-0.242-0.242-0.272-0.453C18.11,7.34,18.298,7.614,18.11,7.8z
	 M17.838,9.975c-0.127,0.264-0.312-0.161-0.544-0.091C17.419,9.492,17.668,9.892,17.838,9.975z M15.664,11.516
	c0.09,0,0.181,0,0.271,0c0,0.151,0,0.302,0,0.453c-0.121,0-0.241,0-0.362,0C15.544,11.758,15.587,11.621,15.664,11.516z
	 M1.165,26.92c-0.134-0.039,0.036-0.115,0-0.271c0.21-0.029,0.348,0.015,0.453,0.091C1.591,27.123,1.236,26.681,1.165,26.92z
	 M8.142,12.512c-0.187-0.055-0.629,0.146-0.543-0.181C7.723,12.206,8.145,12.245,8.142,12.512z M6.239,17.496
	c0.239-0.027,0.297,0.125,0.272,0.363c-0.105-0.015-0.161,0.02-0.181,0.09C6.133,17.965,6.289,17.628,6.239,17.496z M6.33,33.988
	c-0.343,0.011-0.487-0.177-0.544-0.453C6.172,33.482,6.421,33.565,6.33,33.988z M4.518,36.707c-0.285,0.104-0.22-0.143-0.363-0.182
	c0.028-0.123,0.227-0.074,0.363-0.09C4.518,36.525,4.518,36.617,4.518,36.707z M5.061,34.985c0.151,0,0.302,0,0.453,0
	C5.603,35.351,4.973,35.351,5.061,34.985z M6.33,36.979c-0.28-0.021-0.513-0.092-0.725-0.181C5.674,36.395,6.446,36.447,6.33,36.979
	z M6.33,36.436c0.055-0.223,0.579-0.441,0.543,0C6.662,36.463,6.5,36.613,6.33,36.436z M7.236,27.826
	c0.015-0.105-0.02-0.16-0.09-0.181c0.06-0.122,0.193-0.169,0.362-0.181C7.47,27.638,7.475,27.854,7.236,27.826z M6.874,18.131
	c0.111-0.42,0.533-0.179,0.906-0.182C7.624,18.47,7.301,17.826,6.874,18.131z M7.87,39.154c0.01-0.232,0.304-0.18,0.544-0.182
	C8.5,39.301,8.057,39.1,7.87,39.154z M13.942,16.681c0.239-0.027,0.297,0.125,0.271,0.362C13.97,17.037,13.778,16.836,13.942,16.681
	z M8.595,41.601c-0.299-0.136,0.188-0.222,0.091-0.453c0.09,0,0.181,0,0.272,0C8.996,41.457,8.687,41.42,8.595,41.601z
	 M8.958,21.846c-0.26,0.018-0.495,0.012-0.453-0.271c0.443,0.291,0.25-0.351,0.815-0.181C9.179,21.523,9.005,21.621,8.958,21.846z
	 M9.411,37.251c0.233-0.206,0.512,0.09,0.543,0.362C9.66,37.606,9.466,37.498,9.411,37.251z M9.683,24.836
	c0.083-0.159,0.168-0.315,0.453-0.272C10.177,24.848,9.942,24.854,9.683,24.836z M10.68,13.237c0.052-0.299,0.342-0.13,0.543-0.09
	C11.255,13.568,10.798,13.396,10.68,13.237z M12.401,28.461c0-0.15,0-0.302,0-0.453c0.21-0.029,0.348,0.015,0.453,0.091
	C12.843,28.359,12.741,28.529,12.401,28.461z M13.398,18.131c0.056,0.291-0.326,0.124-0.09,0.362c0.081-0.04,0.162-0.08,0.181-0.181
	c0.261,0.208-0.168,0.338-0.363,0.181C13.164,18.32,13.159,18.103,13.398,18.131z M15.482,34.713c0,0.121,0,0.242,0,0.363
	C15.133,35.147,15.133,34.643,15.482,34.713z M15.12,44.229c0.077-0.195,0.223-0.32,0.544-0.271
	C15.618,44.194,15.37,44.467,15.12,44.229z M15.664,36.164c-0.012-0.163,0.111-0.191,0.09-0.363
	C16.072,35.702,15.997,36.357,15.664,36.164z M15.664,35.438c0.2-0.2,0.713-0.442,0.997-0.271
	C16.667,35.684,16.02,35.513,15.664,35.438z M16.841,34.895c-0.185-0.329,0.05-0.398,0.453-0.362
	C17.104,34.613,17.137,34.918,16.841,34.895z M18.292,46.494c-0.033-0.154,0.071-0.172,0.181-0.182
	c0.029-0.24-0.507,0.085-0.362-0.271c0.279,0.063,0.174,0.063,0.453,0c0.077,0.105,0.12,0.242,0.091,0.453
	C18.533,46.494,18.412,46.494,18.292,46.494z M21.554,45.316c0.271,0.129,0.308-0.074,0.543,0.09
	C22.083,45.689,21.543,45.58,21.554,45.316z M20.738,27.555c-0.112-0.293,0.293-0.068,0.181-0.362
	c0.274,0.058,0.523,0.142,0.543,0.453C21.196,27.474,20.902,27.672,20.738,27.555z M23.366,30.636
	c-0.088-0.244-0.313-0.352-0.363-0.634c0.222-0.223,0.393,0.066,0.725,0C23.838,30.443,23.368,30.306,23.366,30.636z M23.638,29.639
	c0.2-0.21,0.08-0.242,0.181-0.453c0.134,0.078,0.195,0.229,0.181,0.453C23.879,29.639,23.759,29.639,23.638,29.639z M24.816,45.95
	c-0.223-0.079-0.393-0.211-0.362-0.544c0.105-0.076,0.243-0.119,0.453-0.09C24.688,45.525,24.768,45.607,24.816,45.95z
	 M26.356,36.345c-0.152,0.421-0.339-0.12-0.363-0.362c0.151,0,0.302,0,0.454,0c-0.015,0.105,0.02,0.161,0.09,0.182
	C26.556,36.313,25.86,36.262,26.356,36.345z M27.444,30.727c0.078,0.289-0.143,0.28-0.181,0.453
	C26.841,31.068,27.079,30.443,27.444,30.727z M27.354,44.229c0.188-0.242,0-0.431-0.272-0.271
	C27.038,43.293,27.903,44.158,27.354,44.229z M27.534,40.967c-0.11-0.316-0.341-0.09-0.362-0.363
	c0.163,0.012,0.191-0.111,0.362-0.09C27.651,40.633,27.651,40.848,27.534,40.967z M28.44,31.361
	c0.226-0.014,0.281,0.142,0.453,0.181C28.823,31.75,28.333,31.631,28.44,31.361z M29.347,36.707
	c0.155-0.164,0.356,0.027,0.363,0.271C29.536,36.941,29.319,36.946,29.347,36.707z M29.709,42.416
	c0.163,0.012,0.191-0.111,0.362-0.09c-0.011,0.162,0.111,0.19,0.09,0.361C29.931,42.678,29.696,42.671,29.709,42.416z
	 M30.706,33.445c0.589,0.109,0.234,0.779-0.181,0.362C30.459,33.561,30.705,33.625,30.706,33.445z M31.068,45.497
	c-0.16,0.026-0.281-0.427-0.362-0.181c-0.15-0.177,0.167-0.3,0.453-0.182C31.197,45.324,31.097,45.375,31.068,45.497z
	 M33.606,31.451c-0.135-0.107-0.405-0.078-0.363-0.362c0.121,0,0.242,0,0.363,0C33.606,31.21,33.606,31.33,33.606,31.451z
	 M33.062,23.839c0.277-0.065,0.267,0.157,0.544,0.091C33.465,24.145,33.038,24.354,33.062,23.839z M34.059,44.591
	c-0.22-0.052-0.202-0.343-0.272-0.544c0.151,0,0.302,0,0.453,0c-0.021,0.131-0.271,0.032-0.272,0.182
	c0.15,0.029,0.243,0.211,0.544,0.091C34.652,44.701,34.043,44.334,34.059,44.591z M34.965,45.406
	c-0.092,0.059-0.093,0.209-0.271,0.182c-0.028-0.275-0.519-0.361-0.272-0.635c-0.154,0.033-0.171-0.07-0.181-0.182
	c0.436,0.199,0.914,0.048,0.997,0.726C35.091,45.523,35.081,45.412,34.965,45.406z M36.234,37.885
	c-0.106-0.014-0.077-0.164-0.091-0.271c-0.187-0.08-0.407,0.234-0.181,0.271c-0.29,0.275-0.104-0.258-0.091-0.453
	c0.213,0.09,0.445,0.16,0.725,0.182C36.635,37.863,36.258,37.699,36.234,37.885z M37.049,26.739c-0.202-0.038-0.071-0.481,0-0.544
	C37.251,26.234,37.12,26.676,37.049,26.739z M51.82,11.969c-0.105,0.076-0.243,0.12-0.453,0.091
	c-0.043-0.286,0.129-0.354,0.182-0.544C51.803,11.556,51.655,11.707,51.82,11.969z M51.639,7.981c0,0.121,0,0.242,0,0.362
	c-0.226-0.046-0.547,0.003-0.543-0.271C51.331,7.907,51.368,8.111,51.639,7.981z M50.732,8.525
	c-0.321-0.037-0.179-0.396-0.543-0.182C50.246,7.708,50.986,8.185,50.732,8.525z M50.37,9.613c-0.2,0.039-0.227-0.544-0.363-0.272
	c-0.292-0.155,0.227-0.246,0.363-0.272C50.539,9.23,50.296,9.299,50.37,9.613z M50.279,8.525c-0.001,0.422-0.451,0.422-0.453,0
	C49.978,8.525,50.128,8.525,50.279,8.525z M49.736,9.884c-0.013-0.255,0.222-0.261,0.453-0.271c0.053,0.354-0.078,0.526-0.182,0.725
	c-0.119-0.032-0.143-0.16-0.271-0.181c0.039-0.134,0.116,0.036,0.271,0C50.062,9.921,49.971,9.83,49.736,9.884z M48.286,18.493
	c0.026,0.237-0.033,0.39-0.271,0.362c-0.117-0.213,0.012-0.168-0.091-0.453C48.113,18.364,48.163,18.464,48.286,18.493z
	 M47.833,20.577c0.406,0.004,0.016,0.481,0,0.634c-0.212,0-0.423,0-0.635,0C47.306,20.896,47.961,21.128,47.833,20.577z
	 M47.561,23.839c0.146-0.025,0.156,0.086,0.272,0.091c0.078,0.289-0.143,0.28-0.182,0.453
	C47.467,24.256,47.741,24.071,47.561,23.839z M46.927,22.48c0.164-0.138,0.277-0.327,0.634-0.272
	C47.545,22.495,47.203,22.454,46.927,22.48z M46.655,11.606c0.173-0.17,0.164,0.054,0.453,0c0,0.121,0,0.242,0,0.362
	c-0.219,0.037-0.197-0.166-0.453-0.091C46.655,11.788,46.655,11.697,46.655,11.606z M45.658,13.328
	c-0.234,0.128-0.564,0.16-0.725,0.362C44.613,13.389,45.524,13.189,45.658,13.328z M42.758,15.412c0,0.061,0,0.121,0,0.181
	c-0.18,0.151-0.115-0.008-0.362,0c0-0.06,0-0.121,0-0.181C42.643,15.42,42.578,15.261,42.758,15.412z M42.486,24.111
	c0.119,0.032,0.143,0.16,0.271,0.181c-0.022,0.099-0.18,0.062-0.181,0.182c-0.214-0.089-0.575-0.029-0.544-0.363
	c0.091,0,0.181,0,0.272,0c-0.017,0.073-0.091,0.09-0.091,0.181C42.396,24.324,42.498,24.274,42.486,24.111z M41.852,11.516
	c0.182,0.031,0.283-0.019,0.272-0.181c0.247-0.066,0.182,0.18,0.362,0.181c-0.241,0.033-0.272,0.183-0.634,0.272
	C41.852,11.697,41.852,11.606,41.852,11.516z M39.677,28.37c-0.396,0.034-0.436-0.289-0.544-0.544
	C39.544,27.779,39.725,27.96,39.677,28.37z M38.68,32.086c0.628,0.279-0.584,0.619-0.543,0.09
	C38.351,31.81,38.735,32.482,38.68,32.086z M37.956,45.77c0.069-0.197,0.22-0.507,0.453-0.272
	C38.252,45.583,38.26,45.832,37.956,45.77z M38.137,33.808c-0.066-0.277,0.156-0.267,0.091-0.544c0.121,0,0.241,0,0.362,0
	c0.114,0.248,0.089,0.636,0.272,0.816C38.577,34.031,38.356,33.92,38.137,33.808z M39.768,33.808c-0.212,0-0.423,0-0.635,0
	C39.265,33.656,39.777,33.323,39.768,33.808z M39.586,34.713c0.183-0.234,0.698-0.039,0.634,0.272
	C39.994,34.91,39.865,34.737,39.586,34.713z M41.218,19.762c0.057-0.193,0.558-0.085,0.634,0
	C41.791,20.091,41.325,19.909,41.218,19.762z M42.214,22.662c-0.583,0-0.319-0.394-0.543-0.634
	C42.033,21.588,42.523,22.213,42.214,22.662z M42.124,42.507c-0.239,0.027-0.298-0.126-0.272-0.362c0.09,0,0.181,0,0.272,0
	C42.124,42.266,42.124,42.387,42.124,42.507z M42.305,27.646c0.201,0.21,0.353-0.03,0.634,0c-0.001,0.181-0.248,0.115-0.182,0.362
	C42.543,27.951,42.336,27.887,42.305,27.646z M42.939,38.791c-0.151,0-0.302,0-0.453,0c-0.058-0.219,0.432-0.339,0.453-0.181
	C42.939,38.671,42.939,38.73,42.939,38.791z M43.03,36.073c-0.11,0.274-0.346-0.064-0.453-0.091
	c-0.016-0.197,0.321-0.041,0.453-0.091C42.974,35.973,42.92,36.054,43.03,36.073z M43.664,18.583c0.169-0.086,0.303,0.271,0.363,0
	c0.396,0.138-0.596,0.292,0,0.363c-0.079,0.133-0.136,0.287-0.363,0.272C43.46,19.022,43.739,18.909,43.664,18.583z M43.846,30.364
	c-0.066-0.247,0.18-0.183,0.181-0.362c0.159,0.021,0.207,0.156,0.181,0.362C44.087,30.364,43.966,30.364,43.846,30.364z
	 M43.393,8.888c0.175-0.431,0.61,0,0.815,0.091C44.064,9.378,43.519,9.058,43.393,8.888z M44.57,22.118
	c0.197,0.081,0.277,0.506-0.09,0.454C44.283,22.382,44.491,22.278,44.57,22.118z M44.57,23.206c0-0.061,0-0.121,0-0.182
	c0.151,0,0.302,0,0.453,0C45.117,23.329,44.742,23.165,44.57,23.206z M44.842,20.125c-0.285,0.013-0.311-0.233-0.362-0.453
	c0.19-0.199,0.403-0.019,0.543,0.09C44.977,19.896,44.89,19.99,44.842,20.125z M45.477,23.477c0.116,0.126,0.428,0.055,0.544,0.181
	C45.928,23.86,45.414,23.73,45.477,23.477z M46.021,30.727c-0.237,0.025-0.39-0.033-0.363-0.271
	C45.895,30.43,46.111,30.424,46.021,30.727z M49.011,33.445c0.18-0.151,0.115,0.008,0.362,0
	C49.445,33.794,48.939,33.794,49.011,33.445z M46.503,31.546l2.05-9.977c-0.029,0.001-0.053,0.007-0.086,0.005
	c-0.012-0.224-0.014-0.437,0.09-0.544c0.036,0.013,0.065,0.032,0.097,0.048l0.122-0.595c-0.148,0.121-0.305,0.103-0.491,0.365
	c0.063-0.073,0.141-0.248,0-0.272c0.144-0.107,0.326-0.178,0.52-0.234l0.115-0.558h0.214l0.092,0.428
	c0.075-0.004,0.138-0.02,0.147-0.088c0.108,0.051,0.063,0.324-0.067,0.463l0.095,0.444c0.13-0.034,0.252-0.078,0.244-0.183
	c0.211,0.178-0.017,0.23-0.219,0.298l1.018,4.741c0.09-0.116,0.194-0.217,0.379-0.236c0.058,0.088,0.02,0.629,0.181,0.181
	c0.355,0.087-0.054,0.326-0.181,0.454c-0.191,0.011-0.197-0.163-0.337-0.202l1.172,5.461H46.503z M51.548,20.939
	c0.126-0.263,0.447,0.026,0.543,0.091C52.015,21.244,51.694,20.955,51.548,20.939z M52.183,12.06
	c0.213-0.064,0.575-0.208,0.543,0.181C52.602,12.366,52.18,12.327,52.183,12.06z M52.635,27.736
	c0.014-0.198,0.229-0.195,0.453-0.182C53.057,27.875,52.851,27.789,52.635,27.736z M52.907,22.299
	c0.295-0.023,0.436,0.108,0.453,0.363C53.145,22.605,52.938,22.54,52.907,22.299z M53.451,19.309
	c0.237-0.025,0.39,0.033,0.362,0.272C53.658,19.744,53.458,19.553,53.451,19.309z M54.176,22.208
	c-0.071-0.201-0.301-0.243-0.272-0.544c0.09,0,0.181,0,0.272,0C54.345,21.826,54.103,21.895,54.176,22.208z M56.985,20.577
	c-0.014,0.198-0.229,0.195-0.454,0.182C56.598,20.574,56.805,20.388,56.985,20.577z M55.445,10.428
	c-0.201,0.21-0.08,0.243-0.181,0.453c-0.073-0.048-0.147-0.095-0.272-0.091C54.979,10.506,55.224,10.479,55.445,10.428z
	 M55.173,8.344c-0.063,0.179-0.242,0.242-0.453,0.272c0.012-0.162-0.111-0.191-0.091-0.362C54.77,8.104,54.982,8.284,55.173,8.344z
	 M54.448,22.208c0.032-0.119,0.16-0.143,0.181-0.272C55.008,21.997,54.671,22.499,54.448,22.208z M54.901,11.516
	c0.21-0.029,0.348,0.015,0.453,0.091C55.38,11.841,54.741,11.921,54.901,11.516z M55.354,13.056
	c-0.009-0.281,0.111-0.433,0.181-0.634c0.399,0.076,0.652,0.5,0.453,0.906C55.829,12.991,55.822,12.973,55.354,13.056z
	 M55.988,43.504c-0.003-0.5,0.269-0.253,0.634-0.271C56.427,43.338,56.207,43.42,55.988,43.504z M56.079,28.008
	c0.159-0.143,0.482-0.121,0.725-0.182C56.678,28.005,56.216,28.119,56.079,28.008z M56.26,41.601
	c-0.052-0.159,0.109-0.532-0.091-0.544c0.222-0.245,0.443,0.277,0.816,0.182C57.034,41.648,56.472,41.449,56.26,41.601z
	 M57.076,41.51c0.026,0.307,0.515,0.15,0.544,0.453C57.312,41.938,57.064,41.854,57.076,41.51z M56.441,22.934
	c0.063-0.239,0.413-0.192,0.453-0.453c0.174,0.309,0.794,0.172,0.725,0.725C57.042,23.025,57.031,23.103,56.441,22.934z
	 M59.16,39.789c-0.36-0.08-0.031-0.504-0.544-0.272c0.067-0.205,0.345-0.198,0.362-0.453C59.336,39.008,59.085,39.561,59.16,39.789z
	 M59.16,20.487c0.124-0.238,0.381-0.344,0.453-0.634c0.237,0.155-0.127,0.469,0,0.815C59.271,20.799,59.439,20.419,59.16,20.487z
	 M59.522,36.436c0.173-0.17,0.228-0.01,0.453,0C60.029,36.629,59.435,36.764,59.522,36.436z M61.969,31.904
	c-0.325,0.053-0.276-0.268-0.272-0.543c0.09,0,0.181,0,0.272,0C61.969,31.542,61.969,31.723,61.969,31.904z M64.234,34.985
	c-0.193-0.084-0.124-0.659,0.181-0.544C64.439,34.707,64.211,34.721,64.234,34.985z M64.959,33.354
	c0.04-0.081,0.08-0.162,0.181-0.181c-0.066-0.086-0.165-0.138-0.271-0.182C65.03,32.371,65.589,33.471,64.959,33.354z
	 M65.956,33.535c-0.151,0-0.302,0-0.453,0C65.401,33.099,66.091,33.045,65.956,33.535z M65.775,33.988
	c-0.112-0.293,0.293-0.068,0.181-0.361c0.255,0.016,0.386,0.157,0.363,0.453C66.105,34.082,66.052,33.924,65.775,33.988z
	 M66.047,43.957c0.023-0.213,0.398-0.053,0.453,0C66.429,44.275,66.183,44.062,66.047,43.957z M66.681,8.979
	c0.091,0,0.181,0,0.272,0c0,0.09,0,0.181,0,0.271c-0.121,0-0.242,0-0.363,0C66.639,9.177,66.685,9.103,66.681,8.979z M66.862,32.357
	c0.17-0.049,0.465-0.432,0.634-0.182C67.569,32.521,67.068,32.291,66.862,32.357z M67.678,31.723
	c0.239-0.027,0.233,0.189,0.271,0.363C67.631,32.154,67.544,31.849,67.678,31.723z M69.762,23.568
	c-0.13-0.142-0.472-0.071-0.453-0.362C69.53,23.256,69.775,23.283,69.762,23.568z M68.675,9.341c0.23,0.009,0.214,0.337,0.091,0.453
	c-0.119-0.032-0.143-0.16-0.272-0.181C68.525,9.494,68.653,9.47,68.675,9.341z M69.219,16.318c0.023,0.295-0.108,0.436-0.363,0.453
	c-0.002-0.088-0.111-0.07-0.181-0.091C68.678,16.382,68.933,16.334,69.219,16.318z M68.494,43.413
	c0.404,0.04,0.135,0.19,0.272,0.453C68.511,43.879,68.504,43.645,68.494,43.413z M68.584,34.352c-0.012-0.162,0.11-0.191,0.09-0.363
	c0.091,0,0.181,0,0.272,0C68.839,34.123,68.868,34.394,68.584,34.352z M68.856,17.406c-0.063-0.279-0.063-0.174,0-0.453
	C69.099,16.987,69.281,17.435,68.856,17.406z M69.49,24.927c-0.032,0.119-0.159,0.143-0.181,0.272
	C68.931,25.138,69.267,24.636,69.49,24.927z M69.309,40.061c0.01-0.232,0.304-0.18,0.543-0.182
	C69.832,40.216,69.531,40.133,69.309,40.061z M75.562,22.662c-0.29,0.078-0.28-0.143-0.454-0.181
	C75.18,22.272,75.669,22.392,75.562,22.662z M75.29,36.345c-0.004,0.479-0.308,0.659-0.634,0.815
	c0.001,0.18,0.247,0.115,0.181,0.363C74.281,37.422,74.624,36.274,75.29,36.345z M74.565,27.736c-0.354-0.1-0.454-0.452-0.543-0.816
	C74.369,27.025,74.51,27.338,74.565,27.736z M73.931,39.879c-0.057,0.402-0.201,0.154-0.544,0.271
	C73.439,39.932,73.729,39.949,73.931,39.879z M72.662,37.07c0.036-0.266,0.532-0.072,0.634-0.272
	C73.542,37.105,72.974,37.228,72.662,37.07z M73.296,37.885c-0.027,0.245-0.381,0.163-0.453,0.363
	c-0.099-0.022-0.062-0.18-0.181-0.182C72.75,37.882,73.01,37.871,73.296,37.885z M72.934,17.496
	c-0.224,0.012-0.437,0.014-0.544-0.09C72.371,17.157,72.937,17.239,72.934,17.496z M70.759,19.762
	c0.385-0.083,0.387,0.217,0.363,0.544c-0.155,0.019-0.235-0.155-0.272,0C70.649,20.294,70.811,19.921,70.759,19.762z M70.578,45.406
	c0-0.121,0-0.241,0-0.362c0.135,0.107,0.405,0.079,0.363,0.362C70.819,45.406,70.699,45.406,70.578,45.406z M70.85,23.839
	c0.015-0.106,0.165-0.076,0.272-0.09c0,0.151,0,0.302,0,0.453C70.871,24.241,71.037,23.864,70.85,23.839z M71.394,27.646
	c-0.161-0.021-0.454,0.091-0.363-0.181c0.081-0.07,0.205-0.098,0.363-0.092C71.394,27.465,71.394,27.555,71.394,27.646z
	 M71.756,15.231c0.121,0,0.242,0,0.362,0c0.029,0.21-0.015,0.348-0.09,0.453C71.745,15.726,71.738,15.49,71.756,15.231z
	 M71.756,16.409c0.22,0.083,0.517,0.362,0.362,0.543C71.828,16.94,71.72,16.747,71.756,16.409z M71.846,34.713
	c0.132,0.051,0.469-0.105,0.454,0.092C72.358,35.158,71.765,34.947,71.846,34.713z M72.028,35.529
	c-0.098-0.133,0.439-0.402,0.815-0.362c-0.008,0.128-0.015,0.257,0.091,0.271C72.649,35.625,72.29,35.32,72.028,35.529z
	 M72.934,45.135c-0.162-0.291-0.455-0.451-0.634-0.725c0.107-0.104,0.32-0.104,0.543-0.091
	C72.795,44.67,73.005,44.762,72.934,45.135z M73.296,43.504c0.115-0.406,0.428-0.364,0.725-0.182
	C73.929,43.531,73.604,43.51,73.296,43.504z M74.112,43.141c0.161-0.15,0.664-0.131,0.634,0.182
	C74.54,43.256,74.039,43.486,74.112,43.141z M75.562,43.232c-0.109-0.104-0.165-0.26-0.454-0.182c0-0.091,0-0.182,0-0.271
	c0.236-0.166,0.273,0.039,0.544-0.092C75.664,42.912,75.666,43.125,75.562,43.232z M75.38,40.514
	c0.228,0.475-0.215,0.804-0.272,1.268c-0.596-0.326-0.769,0.316-1.45,0.182c0.014-0.197,0.229-0.194,0.453-0.182
	c-0.098-0.264-0.432-0.293-0.815-0.271c-0.233-0.123,0.449-0.086,0.543-0.182c0.038-0.701-1.017,0.052-0.634-0.453
	c-0.35-0.284-0.443,0.46-0.634,0.635c-0.155-0.029,0.083-0.28-0.181-0.362c0.103-0.863,1.574-0.36,1.812-1.087
	c0.188,0.584,1.341-0.276,1.541,0.453C75.729,40.738,75.436,40.539,75.38,40.514z M82.268,16.409c0.063-0.173,0.141,0.098,0,0.09
	c-0.029,0.24,0.507-0.084,0.362,0.272c-0.336-0.053-0.525,0.279-0.725,0.09C82.046,16.732,82.22,16.634,82.268,16.409z
	 M81.814,16.137c0.067,0.279-0.312,0.11-0.181,0.453c-0.285-0.138-0.442-0.404-0.816-0.453c-0.035-0.393,0.437-0.139,0.453-0.272
	C81.323,15.968,81.438,16.36,81.814,16.137z M80.727,15.412c0.011,0.163-0.111,0.191-0.091,0.362c0.122-0.162,0.524-0.28,0.725-0.09
	c-0.299,0.366-0.882-0.028-1.087,0.09C80.095,15.677,80.543,15.447,80.727,15.412z M79.73,9.794
	c-0.072,0.169-0.151,0.332-0.181,0.543c-0.073-0.048-0.147-0.094-0.271-0.09C79.294,9.962,79.445,9.812,79.73,9.794z M77.012,35.711
	c0.121,0,0.242,0,0.362,0C77.48,36.025,76.868,36.132,77.012,35.711z M77.465,27.012c-0.027-0.239,0.125-0.298,0.362-0.272
	C77.854,26.979,77.702,27.037,77.465,27.012z M77.736,32.811c-0.048-0.326,0.483-0.538,0.453-0.09
	C77.934,32.645,77.955,32.848,77.736,32.811z M78.934,25.901c-0.268,0.037-0.543,0.06-0.827,0.06h-1.396v-8.27h1.396
	c2.415,0,4.35,1.342,4.35,4.134c0,2.339-1.364,3.648-3.225,4.016c-0.057,0.078-0.114,0.139,0.045,0.174
	C79.113,26.223,78.962,26.072,78.934,25.901z M80.727,25.38c0.18,0.151,0.115-0.008,0.362,0
	C81.368,25.824,80.732,25.792,80.727,25.38z M80.999,34.08c0.034-0.243,0.482-0.426,0.453,0
	C81.227,34.09,81.171,34.249,80.999,34.08z M82.268,31.361c0.071-0.209,0.561-0.089,0.453,0.181
	C82.431,31.619,82.44,31.399,82.268,31.361z M82.54,14.959c-0.175,0.037-0.008,0.415-0.363,0.272
	c0.135-0.276-0.03-0.353,0.091-0.544c0.135,0.137,0.517,0.027,0.453,0.363C82.615,15.064,82.559,15.03,82.54,14.959z M83.536,14.416
	c0,0.121,0,0.242,0,0.362c-0.247,0.066-0.183-0.18-0.362-0.181C83.195,14.437,83.33,14.39,83.536,14.416z M83.355,31.542
	c0.325-0.054,0.438,0.105,0.634,0.181C83.944,32.033,83.226,31.951,83.355,31.542z M83.536,29.82
	c-0.042-0.204,0.492-0.279,0.543-0.09C84.112,30.113,83.687,29.809,83.536,29.82z M83.989,33.808c-0.151,0-0.302,0-0.453,0
	c-0.075-0.528,0.378-0.528,0.725-0.634C84.296,33.51,83.894,33.41,83.989,33.808z M83.264,15.684
	c0.083-0.341,0.557-0.289,0.544-0.725c0.255-0.075,0.235,0.128,0.453,0.091C83.931,15.263,83.582,15.458,83.264,15.684z
	 M84.985,15.593c-0.066-0.145-0.443,0.021-0.361-0.271c0.08-0.071,0.204-0.098,0.361-0.091
	C84.985,15.352,84.985,15.473,84.985,15.593z M85.711,31.542c0.106-0.104,0.32-0.103,0.544-0.091
	C86.392,31.94,85.729,31.858,85.711,31.542z M88.61,16.953c0.17-0.23,0.68-0.383,0.816,0C89.021,16.75,88.974,17.198,88.61,16.953z
	 M89.97,17.587c-0.074-0.256,0.128-0.235,0.091-0.453c0.294,0.017,0.065,0.158,0.181,0.453
	C90.151,17.587,90.061,17.587,89.97,17.587z M90.604,16.862c-0.248-0.002-0.215-0.427-0.091-0.543
	C90.714,16.33,90.552,16.703,90.604,16.862z M91.692,18.583c0.09-0.36,0.545-0.087,0.814-0.09
	C92.411,18.802,91.866,18.844,91.692,18.583z M103.743,20.396c0.2,0.133,0.426,0.24,0.363,0.634
	c-0.235-0.372-0.316-0.358-0.635-0.091C103.437,20.633,103.874,20.797,103.743,20.396z M104.016,28.914
	c-0.016,0.286-0.063,0.541-0.362,0.544c-0.066-0.276,0.093-0.331,0.09-0.544C103.835,28.914,103.925,28.914,104.016,28.914z
	 M103.2,24.383c0.159,0.022,0.207,0.156,0.182,0.362c-0.189,0.039-0.24-0.062-0.363-0.09
	C103.052,24.536,103.179,24.513,103.2,24.383z M99.032,18.04c0,0.121,0,0.242,0,0.362c-0.152,0-0.303,0-0.453,0
	C98.596,18.147,98.736,18.017,99.032,18.04z M96.132,29.549c-0.048,0.072-0.094,0.146-0.09,0.271
	c-0.216-0.057-0.422-0.122-0.453-0.362C95.773,29.265,95.946,29.483,96.132,29.549z M95.679,25.018
	c0.012-0.23,0.132-0.352,0.363-0.362C96.104,24.959,95.89,24.986,95.679,25.018z M95.86,18.312c-0.105-0.015-0.162,0.02-0.182,0.09
	c-0.188-0.051-0.191-0.141-0.09-0.271c-0.193-0.042-0.174,0.129-0.182,0.271c-0.284-0.062-0.118-0.242-0.091-0.453
	c0.017-0.077-0.035-0.085-0.091-0.09C95.285,17.806,95.972,17.893,95.86,18.312z M94.772,20.034c0.32-0.049,0.223,0.321,0.544,0.272
	c-0.093,0.257-0.526,0.494-0.815,0.271C94.428,20.232,94.767,20.299,94.772,20.034z M94.683,25.018
	c0.189-0.039,0.239,0.062,0.361,0.091c-0.041,0.32-0.229,0.496-0.361,0.725C94.421,25.593,94.915,25.286,94.683,25.018z
	 M93.413,34.532c-0.012-0.224-0.014-0.437,0.091-0.544C93.765,33.847,93.646,34.596,93.413,34.532z M93.866,40.694
	c0.053-0.22,0.343-0.202,0.544-0.271C94.382,40.869,94.106,40.543,93.866,40.694z M94.138,25.38
	c-0.346-0.289,0.19-0.398-0.181-0.816c0.205,0.067,0.198,0.345,0.453,0.362C94.329,25.087,94.191,25.191,94.138,25.38z
	 M94.501,40.332c0.221-0.172,0.723-0.062,0.996-0.182C95.325,40.525,94.88,40.336,94.501,40.332z M95.316,40.967
	c0.235-0.238-0.146-0.072-0.091-0.363c0.299,0.254,0.406-0.265,0.544-0.453c0.151,0,0.302,0,0.453,0
	C95.961,40.663,95.613,40.574,95.316,40.967z M97.22,43.685c-0.283,0.042-0.29-0.193-0.271-0.452
	c0.188-0.039,0.239,0.062,0.361,0.09C97.321,43.484,97.199,43.514,97.22,43.685z M96.948,41.51c0.336-0.096,0.177,0.306,0.361,0.363
	C97.216,42.076,96.894,41.754,96.948,41.51z M98.487,19.943c0.203,0.04,0.324,0.16,0.363,0.363
	C98.646,20.512,98.521,20.175,98.487,19.943z M99.122,45.225c-0.121,0-0.242,0-0.362,0c0.003-0.088,0.11-0.07,0.181-0.09
	c0.016-0.227-0.139-0.283-0.271-0.363C98.872,44.518,99.228,44.872,99.122,45.225z M99.304,30.908
	c-0.285,0.076,0.178,0.902-0.363,0.725c0.377-0.047-0.051-0.897,0.453-0.816C99.411,30.895,99.358,30.902,99.304,30.908z
	 M99.847,33.354c0.467-0.073,0.555,0.231,0.545,0.634C100.047,33.939,99.959,33.635,99.847,33.354z M100.3,30.455
	c-0.095-0.338,0.307-0.178,0.363-0.363c0.159,0.022,0.206,0.156,0.182,0.363C100.505,30.463,100.586,30.557,100.3,30.455z
	 M101.479,42.598c0-0.121,0-0.242,0-0.363c0.12,0,0.241,0,0.362,0C101.81,42.445,101.782,42.66,101.479,42.598z M101.388,41.328
	c0.188-0.195,0.293,0.012,0.453,0.092C101.856,41.566,101.248,41.603,101.388,41.328z M101.388,22.571
	c-0.355-0.303,0.549-0.11,0.362-0.544C102.262,22.283,101.515,22.4,101.388,22.571z M101.932,34.261c0.091,0,0.181,0,0.272,0
	c0.123,0.206-0.234,0.341,0,0.362C102.073,34.891,101.839,34.516,101.932,34.261z M102.476,36.164
	c-0.117-0.156-0.299-0.246-0.544-0.272C102.101,35.633,102.841,35.867,102.476,36.164z M103.109,37.977
	c-0.313,0.072-0.349-0.136-0.634-0.092C102.437,37.516,103.263,37.471,103.109,37.977z M102.747,34.623
	c0.053-0.299,0.342-0.13,0.544-0.091C103.164,34.756,102.979,34.692,102.747,34.623z M103.382,33.717
	c0.104-0.076,0.242-0.119,0.453-0.09C103.968,33.912,103.313,34.062,103.382,33.717z M103.925,30.908
	c0.032-0.119,0.16-0.143,0.182-0.272C104.485,30.696,104.148,31.198,103.925,30.908z M104.378,26.92
	c0.002-0.263,0.513-0.213,0.635-0.09C104.974,27.033,104.565,26.867,104.378,26.92z M104.922,19.037c0.12,0,0.241,0,0.362,0
	c-0.014,0.105,0.02,0.161,0.09,0.181C105.274,19.45,104.853,19.431,104.922,19.037z M111.899,23.477c0.09,0,0.182,0,0.271,0
	c-0.012,0.29-0.205,0.399-0.543,0.362C111.665,23.665,111.979,23.768,111.899,23.477z M111.084,14.144
	c-0.151-0.121-0.577,0.033-0.544-0.272C110.815,13.868,111.137,13.819,111.084,14.144z M110.087,21.302
	c0.224-0.012,0.437-0.014,0.544,0.091C110.627,21.666,109.987,21.656,110.087,21.302z M108.094,18.493
	c0.015,0.196-0.321,0.041-0.453,0.09c-0.012-0.163,0.11-0.191,0.091-0.362C108.022,18.142,107.919,18.457,108.094,18.493z
	 M106.462,37.704c0.285-0.043,0.24,0.243,0.453,0.272C106.76,38.24,106.396,37.961,106.462,37.704z M107.097,35.167
	c-0.105-0.015-0.161,0.021-0.182,0.091c-0.179-0.062-0.241-0.242-0.271-0.453c0.172-0.039,0.228-0.195,0.453-0.182
	C106.995,34.908,107.089,34.828,107.097,35.167z M106.825,33.535c0.011-0.23,0.131-0.352,0.361-0.361
	c-0.008,0.128-0.014,0.256,0.092,0.271C107.293,33.642,106.956,33.486,106.825,33.535z M107.55,15.412
	c0.326,0.064,0.127,0.425,0,0.544C107.349,15.918,107.479,15.475,107.55,15.412z M107.821,29.549c-0.061,0-0.121,0-0.181,0
	c0.017-0.078-0.036-0.086-0.091-0.091c0-0.061,0-0.121,0-0.182c0.077,0.017,0.086-0.035,0.091-0.091c0.06,0,0.12,0,0.181,0
	c-0.016,0.078,0.035,0.086,0.091,0.091c0,0.061,0,0.121,0,0.182C107.835,29.441,107.827,29.493,107.821,29.549z M108.003,37.342
	c0.012-0.162-0.111-0.191-0.091-0.363c0.206-0.124,0.341,0.234,0.362,0c0.123,0.028,0.076,0.228,0.091,0.363
	C108.185,37.19,108.25,37.35,108.003,37.342z M108.546,12.512c0.251-0.101,0.509-0.141,0.453,0.272
	C108.769,12.774,108.534,12.767,108.546,12.512z M109.181,33.898c-0.443-0.223,0.469-0.297,0.092-0.453
	c0.057-0.221,0.457-0.049,0.361,0.182C109.519,33.752,109.19,33.666,109.181,33.898z M110.722,23.839
	c0.145,0.357-0.392,0.032-0.363,0.272c-0.246,0.065,0.065-0.427-0.181-0.362c-0.061,0-0.121,0-0.181,0
	C110.118,23.545,110.678,23.664,110.722,23.839z M110.54,41.963c-0.182-0.121-0.012-0.592-0.453-0.453
	c-0.277-0.14,0.394-0.08,0.544-0.09C110.643,41.643,110.645,41.855,110.54,41.963z M110.178,36.073
	c0.126-0.298,0.292-0.554,0.726-0.544C110.728,35.776,110.474,35.945,110.178,36.073z M110.812,29.82
	c-0.384,0.033-0.079-0.393-0.09-0.544c0.131-0.05,0.469,0.106,0.453-0.091c0.158,0.021,0.207,0.156,0.181,0.363
	C110.853,29.484,110.868,29.596,110.812,29.82z M111.446,36.525c0.059,0.33-0.188,0.357-0.453,0.363
	c0.002-0.18,0.247-0.115,0.182-0.363C111.265,36.525,111.355,36.525,111.446,36.525z M110.993,41.51
	c0.018-0.278,0.488-0.189,0.453,0.091C111.286,41.769,111.183,41.561,110.993,41.51z M111.265,38.066
	c0.287,0.016,0.541,0.064,0.544,0.362C111.671,38.266,111.188,38.446,111.265,38.066z M112.262,40.423c-0.091,0-0.181,0-0.272,0
	c0-0.121,0-0.242,0-0.362c0.164-0.012,0.191,0.11,0.363,0.09C112.304,40.224,112.258,40.298,112.262,40.423z M112.896,37.977
	c0.092,0,0.182,0,0.272,0c0.018,0.259,0.011,0.494-0.272,0.452C112.896,38.277,112.896,38.127,112.896,37.977z M112.987,42.507
	c0.014-0.282,0.555-0.175,0.543,0.091C113.317,42.6,113.264,42.441,112.987,42.507z M113.439,30.998
	c-0.065-0.276,0.093-0.33,0.091-0.543c0.092,0,0.182,0,0.271,0c0.033,0.154-0.07,0.17-0.18,0.181
	c-0.055,0.327,0.275,0.267,0.271,0.544C113.774,31.087,113.56,31.091,113.439,30.998z M128.392,19.399
	c-0.094,0.207-0.057,0.546-0.182,0.725c-0.072-0.048-0.146-0.095-0.271-0.091C127.903,19.635,128.05,19.42,128.392,19.399z
	 M124.587,8.253c0.014,0.256-0.559-0.075-0.545,0.181C123.817,8.108,124.353,8.203,124.587,8.253z M123.136,13.781
	c-0.285-0.167-0.494-0.412-0.543-0.815C122.925,13.087,123.038,13.426,123.136,13.781z M122.593,9.975
	c0.02,0.155-0.154,0.235,0,0.272c-0.039,0.203-0.447,0.037-0.635,0.09C121.872,9.925,122.339,9.767,122.593,9.975z M121.687,12.512
	c0.014-0.198,0.229-0.194,0.453-0.181c-0.043,0.418,0.227,0.33,0.271,0.816c-0.355-0.09-0.525,0.2-0.725,0
	C121.858,13.15,122.048,12.47,121.687,12.512z M121.595,14.144c0,0.121,0,0.242,0,0.362c-0.256-0.143-0.385,0.104-0.633-0.09
	C120.901,14.054,121.306,14.156,121.595,14.144z M119.058,14.687c-0.16,0.054-0.375-0.266-0.453,0
	C118.327,14.496,119.212,14.04,119.058,14.687z M119.421,16.59c-0.021,0.159-0.156,0.207-0.363,0.181
	c0.016-0.105-0.02-0.161-0.09-0.181C119.044,16.325,119.259,16.644,119.421,16.59z M118.151,10.972
	c-0.256,0.075-0.234-0.128-0.453-0.091C117.706,10.612,118.239,10.639,118.151,10.972z M117.698,11.697
	c-0.066,0.084-0.164,0.137-0.271,0.181c0.018,0.074,0.092,0.09,0.092,0.182c0.197,0.016,0.287-0.075,0.271-0.272
	c0.279-0.068,0.174,0.249,0.453,0.181c-0.381,0.453-0.398,0.263-1.18,0.272c0.072-0.463-0.553-0.231-0.633-0.544
	c-0.205,0.051,0.109,0.142-0.092,0.272c-0.15,0-0.301,0-0.453,0c0.359-0.376-0.17-0.003-0.453,0
	C115.878,10.813,117.083,12.079,117.698,11.697z M114.618,34.805c-0.189,0.319-0.004,0.166,0.182,0.271
	c-0.107,0.376-0.449-0.01-0.725,0C114.13,34.693,114.276,34.743,114.618,34.805z M114.255,42.869
	c-0.154-0.504,0.484-0.537,0.725-0.362C114.599,42.59,114.479,42.533,114.255,42.869z M116.339,42.507
	c0.324-0.021,0.475,0.13,0.453,0.453C116.597,42.854,116.446,42.703,116.339,42.507z M120.417,42.507
	c0.287-0.044,0.32,0.163,0.635,0.091C120.989,42.962,120.421,42.908,120.417,42.507z M120.87,41.963
	c-0.012-0.399,0.822-0.727,0.816-0.09C121.415,41.629,121.106,41.896,120.87,41.963z M121.776,39.789
	c0.156-0.164,0.357,0.027,0.363,0.271C121.901,40.086,121.749,40.027,121.776,39.789z M123.136,45.497
	c0.131-0.138,0.473-0.089,0.453,0.181C123.417,45.639,123.042,45.802,123.136,45.497z M124.587,37.704
	c0.336,0.08-0.211,0.725-0.273,0.997C124.075,38.396,124.636,38.121,124.587,37.704z M125.038,43.232
	c-0.113,0.272-0.369-0.203-0.18-0.272c-0.092,0-0.182,0-0.271,0c-0.016-0.196,0.32-0.041,0.451-0.091
	C125.163,43.076,124.806,43.21,125.038,43.232z M127.124,37.16c-0.4,0.053-0.314-0.489,0.09-0.362
	C127.144,36.879,127.116,37.002,127.124,37.16z M122.134,34.553c-4.457,0-7.518-3.49-7.518-7.732s3.061-7.948,7.518-7.948
	c1.803-0.039,3.571,0.561,5.084,1.586c-0.57,1.889-0.879,3.888-0.879,5.946c0,2.196,0.363,4.319,1.009,6.319
	C125.808,33.911,123.987,34.553,122.134,34.553z M127.032,26.739c-0.254-0.017-0.385-0.157-0.361-0.452
	C126.925,26.303,127.056,26.443,127.032,26.739z M127.667,20.849c-0.035-0.276,0.238-0.461-0.09-0.543
	c0.08-0.245,0.367,0.042,0.271,0.271c0.014-0.403,0.957-0.364,0.996,0c-0.449,0.098-0.459-0.231-0.725,0.091
	c0.076,0.017,0.086-0.035,0.09-0.091c0.234,0.022-0.123,0.156,0,0.362C127.933,21.005,127.944,20.784,127.667,20.849z
	 M128.03,25.018c0.141,0.039,0.076,0.285,0.361,0.181C128.413,25.655,127.872,25.453,128.03,25.018z M128.481,33.082
	c-0.285-0.166,0.633-0.627,0.545-0.09C128.866,33.044,128.493,32.883,128.481,33.082z M129.208,17.677c0.09,0,0.18,0,0.271,0
	c0,0.121,0,0.242,0,0.363C129.241,18.067,129.183,17.915,129.208,17.677z M129.569,29.82c-0.158-0.021-0.205-0.156-0.182-0.362
	c0.152,0,0.303,0,0.453,0C129.815,29.643,129.661,29.699,129.569,29.82z M130.839,33.354c0.275-0.004,0.596-0.053,0.543,0.272
	C131.317,33.42,130.755,33.71,130.839,33.354z M155.577,20.668c-0.312,0.072-0.383-0.101-0.543-0.181
	C155.073,20.179,155.696,20.284,155.577,20.668z M154.489,25.199c-0.295-0.007-0.488-0.116-0.543-0.362
	C154.146,24.939,154.446,24.94,154.489,25.199z M151.591,13.328c0.184,0.163,0.264,0.538-0.182,0.453
	C151.341,13.502,151.722,13.67,151.591,13.328z M150.956,13.872c-0.303-0.338-0.422,0.112-0.725-0.091
	C150.239,13.508,151.063,13.485,150.956,13.872z M144.522,7.891c0.361,0.09,0.271-0.271,0.633-0.181
	c0.072,0.169,0.152,0.332,0.182,0.544c-0.293,0.081-0.127-0.295-0.271-0.363c-0.258,0.165-0.461,0.386-0.725,0.544
	C144.325,8.177,144.647,8.258,144.522,7.891z M141.894,7.075c-0.199,0.191,0.117,0.268,0.092,0.543
	c-0.145-0.159-0.418-0.188-0.453-0.453C141.612,7.096,141.735,7.068,141.894,7.075z M139.72,18.493
	c0.359-0.01,0.709,0.312,0.453,0.634c-0.064-0.127-0.215-0.621-0.453-0.272C139.493,18.842,139.692,18.549,139.72,18.493z
	 M138.36,8.525c0.121,0,0.24,0,0.361,0C138.827,8.84,138.216,8.947,138.36,8.525z M138.269,29.911c0.227-0.011,0.281-0.17,0.453,0
	C138.776,30.104,138.181,30.24,138.269,29.911z M137.815,21.937c-0.326,0.233-0.535,0.023-0.814,0.272
	C136.944,21.803,137.569,21.756,137.815,21.937z M137.001,14.959c0.053,0.289-0.17,0.28,0,0.453
	c-0.098,0.309-0.029-0.252-0.273-0.09C136.702,15.084,136.763,14.932,137.001,14.959z M136.095,9.431
	c0.246,0.117,0.273,0.451,0.271,0.816c-0.15,0-0.303,0-0.453,0C135.981,9.919,136.271,9.759,136.095,9.431z M135.913,11.153
	c0.395-0.002,0.682,0.104,0.635,0.543c-0.334-0.019-0.689,0.354-0.998-0.181C135.608,11.331,136.009,11.49,135.913,11.153z
	 M134.825,14.053c-0.289-0.012-0.398-0.205-0.361-0.543C134.735,13.54,135.032,13.819,134.825,14.053z M134.011,19.762
	c0.314,0.027-0.008,0.245,0.18,0.272c-0.027,0.123-0.227,0.075-0.361,0.091C133.763,19.877,134.009,19.942,134.011,19.762z
	 M133.558,27.283c-0.092,0.15-0.385,0.098-0.545,0.182C133.011,27.196,133.433,27.158,133.558,27.283z M132.47,21.03
	c0.105,0.015,0.076,0.166,0.09,0.272c-0.104,0.076-0.242,0.12-0.453,0.091C132.116,21.16,132.462,21.263,132.47,21.03z
	 M133.194,40.514c-0.043-0.284,0.078-0.404,0.363-0.363C133.526,40.361,133.499,40.575,133.194,40.514z M134.011,31.814
	c-0.031-0.334,0.33-0.274,0.543-0.363C134.456,31.656,134.278,31.781,134.011,31.814z M134.282,27.646
	c0.156,0.146,0.33,0.274,0.271,0.634c-0.406,0.168-1.035,0.113-1.268,0.453c-0.303-0.439-0.729,0.205-1.359,0
	c0.066-0.512,0.977-0.508,0.996-0.814c0.414-0.052,0.564,0.16,0.996,0.09c0.238-0.246,0.453-0.515,0.816-0.635
	C135.009,27.691,134.544,27.82,134.282,27.646z M134.735,25.108c-0.289-0.18,0.182-0.353,0.453-0.272
	C135.231,25.122,134.772,24.904,134.735,25.108z M135.37,15.684c0.156,0.082,0.348,0.203,0.18,0.362
	C135.269,16.089,135.228,15.819,135.37,15.684z M135.46,35.167c-0.256-0.092,0.025-0.385,0-0.544c0.305-0.002,0.604,0,0.543,0.362
	C135.673,34.822,135.589,34.781,135.46,35.167z M136.456,20.577c-0.371-0.11-0.051-0.35,0-0.543
	C136.782,20.098,136.585,20.459,136.456,20.577z M136.548,18.04c-0.266-0.299,0.205-0.052,0.453-0.091
	c-0.023,0.16-0.156,0.207-0.363,0.182c0-0.061,0-0.121,0-0.182C136.562,17.933,136.552,17.985,136.548,18.04z M137.272,31.633
	c-0.15,0-0.303,0-0.453,0c-0.043-0.285,0.416-0.068,0.453-0.271C137.407,31.4,137.237,31.477,137.272,31.633z M137.634,38.248
	c-0.158-0.562,0.744,0.133,0.906,0.362C138.284,38.859,137.905,37.984,137.634,38.248z M138.54,32.086
	c0.143,0.039,0.078,0.285,0.363,0.182C138.851,32.648,138.21,32.348,138.54,32.086z M139.538,35.438
	c-0.051-0.2,0.172-0.129,0.182-0.271c0.289-0.079,0.188,0.235,0.361,0.271C139.837,35.736,139.827,35.187,139.538,35.438z
	 M145.337,41.147c-0.123-0.126-0.195-0.447-0.09-0.544C145.495,40.605,145.462,41.031,145.337,41.147z M145.519,34.441
	c0.055-0.311,0.623-0.014,0.906,0C146.14,34.612,145.751,34.47,145.519,34.441z M150.593,36.707
	c-0.105,0.076-0.242,0.119-0.453,0.091c-0.02-0.323,0.131-0.474,0.453-0.453C150.593,36.465,150.593,36.586,150.593,36.707z
	 M145.727,34.243c-3.973,0-7.252-3.222-7.252-7.839c0-4.316,2.863-7.411,6.48-7.799c-0.054-0.008-0.105-0.019-0.161-0.022
	c0.18-0.272,0.619-0.286,0.635-0.725c0.715,0.079,0.691-0.745,1.359-0.453c0.504,0.4,0.627,1.185,1.359,1.359
	c0.005,0.093,0.033,0.162,0.047,0.247c2.773,1.03,4.78,3.78,4.78,7.393C152.975,31.021,149.7,34.243,145.727,34.243z
	 M153.493,33.445c-0.201-0.039-0.07-0.48,0-0.544C153.874,33.021,153.493,33.199,153.493,33.445z M153.675,36.707
	c0.109-0.456,0.928-0.334,1.178-0.182C154.792,36.869,153.892,37.098,153.675,36.707z M154.942,32.539
	c0.154-0.343,0.082-0.44,0.182-0.725C155.288,31.927,155.306,32.654,154.942,32.539z M155.214,29.458
	c0.342-0.069,0.434,0.11,0.727,0.091C155.884,29.922,155.161,29.899,155.214,29.458z M156.212,42.96
	c-0.379-0.061-0.043-0.562,0.18-0.272C156.36,42.807,156.233,42.83,156.212,42.96z M155.759,17.587
	c0.164-0.198,0.328-0.396,0.725-0.362C156.462,17.615,156.04,17.708,155.759,17.587z M158.296,34.805
	c-0.277,0.065-0.268-0.156-0.545-0.092c0.084-0.189,0.268-0.275,0.545-0.271C158.296,34.562,158.296,34.684,158.296,34.805z
	 M158.478,20.125c0.172-0.255,0.471,0.124,0.725,0.09C158.995,20.503,158.722,20.098,158.478,20.125z M163.099,26.468
	c-0.062,0.284-0.242,0.118-0.453,0.091C162.655,26.328,162.983,26.344,163.099,26.468z M162.103,33.717
	c-0.008,0.27-0.541,0.242-0.453-0.09C161.866,33.59,161.845,33.792,162.103,33.717z M161.376,28.643
	c0.285-0.043,0.404,0.078,0.363,0.362C161.624,28.877,161.261,29,161.376,28.643z M160.923,32.721c-0.061,0-0.121,0-0.18,0
	c0.01-0.163-0.111-0.191-0.092-0.363c0.162-0.012,0.191,0.111,0.363,0.091C161.04,32.595,160.929,32.604,160.923,32.721z
	 M160.47,22.752c0.135,0.047,0.229,0.134,0.363,0.182c-0.172,0.22,0.184,0.548,0,0.815c-0.223,0.012-0.438,0.014-0.543-0.091
	C160.722,23.499,160.647,23.107,160.47,22.752z"/>
<path fill="#E9E9E9" d="M94.772,11.516c-0.089,0.132-0.258,0.312-0.419,0.373c1.164,1.452,2.953,2.33,4.84,2.33
	c3.221,0,6.176-2.55,6.176-6.175c0-3.573-2.87-6.096-6.036-6.169c0.002,0.074-0.003,0.148-0.029,0.216
	c-0.332,0.051-0.503-0.06-0.646-0.197c-3.007,0.265-5.642,2.727-5.642,6.149c0,1.388,0.436,2.616,1.152,3.606
	C94.262,11.498,94.526,11.516,94.772,11.516z M102.476,12.422c0.182,0,0.362,0,0.543,0
	C102.944,12.625,102.421,12.845,102.476,12.422z M102.112,10.337c-0.027-0.209,0.262-0.101,0.272-0.272
	c0.073,0.018,0.09,0.091,0.181,0.091c0,0.061,0,0.121,0,0.181C102.415,10.337,102.264,10.337,102.112,10.337z M103.743,5.263
	c-0.367,0.035-0.631-0.033-0.634-0.363C103.397,4.657,103.639,5.042,103.743,5.263z M103.019,12.15
	c-0.357-0.029,0.068-0.28-0.181-0.362C102.999,11.48,103.251,12.031,103.019,12.15z M102.929,10.519
	c0.025,0.237-0.033,0.39-0.271,0.363C102.631,10.644,102.689,10.492,102.929,10.519z M102.565,4.991
	c0.287,0.243-0.441,0.584-0.634,0.362C101.995,4.899,102.435,5.378,102.565,4.991z M99.938,3.632
	c0.081-0.07,0.205-0.097,0.362-0.091c0,0.091,0,0.182,0,0.272C100.14,3.792,99.847,3.904,99.938,3.632z M98.126,7.528
	c0.164,0.229,0.387,0.398,0.725,0.453c-0.074,0.256,0.127,0.235,0.09,0.453c-0.162-0.011-0.19,0.111-0.361,0.091
	c0.227-0.352-0.33-0.39-0.726-0.272C98.067,7.952,98.06,7.841,98.126,7.528z M97.673,7.528c0.012,0.163-0.111,0.191-0.092,0.362
	c-0.215-0.056-0.148-0.395-0.543-0.272C97.202,7.338,97.315,7.571,97.673,7.528z M96.403,10.247
	c-0.379,0.108-0.161-0.382-0.361-0.453C96.343,9.595,96.242,10.005,96.403,10.247z"/>
<path fill="#E9E9E9" d="M168.714,6.968c-0.171,0.002-0.214-0.124-0.235-0.272h-5.885v0.481c0.136-0.023,0.27-0.034,0.35-0.068
	c0.289,0.292-0.022,0.454-0.35,0.471v0.276h2.5v6.467h1.16V7.856h2.498v-1.16h-0.091C168.7,6.765,168.727,6.846,168.714,6.968z
	 M165.446,11.333c0.295-0.023,0.436,0.107,0.453,0.362C165.604,11.72,165.462,11.588,165.446,11.333z"/>
<path fill="#E9E9E9" d="M178.231,8.435c0.042-0.119,0.112-0.209,0.161-0.321V8.073c-0.121-0.007-0.238-0.01-0.253,0.09
	c-0.158-0.13,0.045-0.181,0.253-0.168V6.697h-1.886l-2.146,5.102c0.092,0.017,0.157,0.059,0.246,0.079
	c-0.055,0.188-0.141,0.343-0.453,0.272c-0.006-0.08,0.021-0.127,0.048-0.175l-1.702-4.179c-0.294,0.009-0.386-0.182-0.582-0.269
	c0.121-0.156,0.343-0.086,0.49,0.043l-0.355-0.873h-1.901v6.359c0.164-0.724,0.807,0.357,0,0v1.268h1.158V7.856h0.037l2.534,6.467
	h0.707l2.608-6.467h0.035v6.467h1.16h0.002v-5.89C178.348,8.442,178.3,8.449,178.231,8.435z M173.61,13.523
	c0.328-0.264,0.639,0.264,0.814,0.453C174.204,14.133,174.034,13.466,173.61,13.523z M177.778,9.975
	c0.338-0.097,0.258,0.225,0.543,0.181C178.247,10.5,177.724,10.295,177.778,9.975z"/>
</svg>
