<?xml version="1.0" encoding="utf-8"?>
<!-- Generator: Adobe Illustrator 16.0.0, SVG Export Plug-In . SVG Version: 6.00 Build 0)  -->
<!DOCTYPE svg PUBLIC "-//W3C//DTD SVG 1.1//EN" "http://www.w3.org/Graphics/SVG/1.1/DTD/svg11.dtd">
<svg version="1.1" id="Layer_1" xmlns="http://www.w3.org/2000/svg" xmlns:xlink="http://www.w3.org/1999/xlink" x="0px" y="0px"
	 width="841.891px" height="484.14px" viewBox="0 0 841.891 484.14" enable-background="new 0 0 841.891 484.14"
	 xml:space="preserve">
<path fill="#43EFB6" d="M206.377,419.837c33.652-5.161,41.158-21.944,41.158-21.944c0.403-1.004,0.863-1.569-0.423-2.563
	c-19.009-13.494-32.594-11.264-44.494-7.298c-18.58,6.188-28.093,21.858-29.253,24.198c-1.047,2.106-3.919,7.219-2.267,8.366
	c0.415,2.017,1.834,4.747,2.492,6.151c1.104,2.364,10.258,18.253,28.689,24.865c11.806,4.234,25.335,6.779,44.649-6.271
	c1.308-0.964,0.862-1.54,0.481-2.555C247.413,442.786,240.236,425.706,206.377,419.837z">
<animate  fill="remove" dur="0.6s" accumulate="none" attributeName="d" values="        M206.377,419.836c33.653-5.161,41.158-21.944,41.158-21.944c0.404-1.004,0.864-1.569-0.422-2.563    c-19.009-13.495-32.594-11.264-44.495-7.298c-18.58,6.187-28.092,21.858-29.253,24.198c-1.046,2.106-3.918,7.219-2.266,8.366    c0.415,2.017,1.834,4.747,2.492,6.152c1.105,2.364,10.258,18.252,28.69,24.865c11.805,4.234,25.334,6.779,44.649-6.272    c1.308-0.964,0.862-1.54,0.481-2.554C247.413,442.786,240.236,425.706,206.377,419.836z;     M206.377,419.836c14.383-7.874,17.946-21.944,17.946-21.944c0.404-1.004-0.422-2.563-0.422-2.563    c-12.077-9.711-21.602-10.903-30.942-7.298c-14.258,5.508-19.268,21.858-20.429,24.198c-1.046,2.106-3.083,7.219-1.431,8.366    c0.415,2.017,1.834,4.747,2.492,6.152c1.105,2.364,10.258,18.252,28.69,24.865c11.805,4.234,25.334,6.779,44.649-6.272    c1.308-0.964,0.862-1.54,0.481-2.554C247.413,442.786,240.236,425.706,206.377,419.836z;     M190.873,419.836c23.5-5.161,33.451-21.944,33.451-21.944c0.283-1.004,0.604-1.569-0.294-2.563    c-13.275-13.495-22.762-11.264-31.071-7.298c-12.976,6.187-19.618,21.858-20.429,24.198c-0.729,2.106-2.735,7.219-1.582,8.366    c0.289,2.017,1.28,4.747,1.74,6.152c0.771,2.364,7.163,18.252,20.034,24.865c8.244,4.234,17.691,6.779,31.179-6.272    c0.914-0.964,0.604-1.54,0.337-2.554C224.238,442.786,214.519,425.706,190.873,419.836z;     M206.377,419.836c14.383-7.874,17.946-21.944,17.946-21.944c0.404-1.004-0.422-2.563-0.422-2.563    c-12.077-9.711-21.602-10.903-30.942-7.298c-14.258,5.508-19.268,21.858-20.429,24.198c-1.046,2.106-3.083,7.219-1.431,8.366    c0.415,2.017,1.834,4.747,2.492,6.152c1.105,2.364,10.258,18.252,28.69,24.865c11.805,4.234,25.334,6.779,44.649-6.272    c1.308-0.964,0.862-1.54,0.481-2.554C247.413,442.786,240.236,425.706,206.377,419.836z;     M206.377,419.836c33.653-5.161,41.158-21.944,41.158-21.944c0.404-1.004,0.864-1.569-0.422-2.563    c-19.009-13.495-32.594-11.264-44.495-7.298c-18.58,6.187-28.092,21.858-29.253,24.198c-1.046,2.106-3.918,7.219-2.266,8.366    c0.415,2.017,1.834,4.747,2.492,6.152c1.105,2.364,10.258,18.252,28.69,24.865c11.805,4.234,25.334,6.779,44.649-6.272    c1.308-0.964,0.862-1.54,0.481-2.554C247.413,442.786,240.236,425.706,206.377,419.836z;" restart="always" calcMode="linear" additive="replace" repeatCount="indefinite">
		</animate>
</path>
<g>
	<g>
		<path id="SVGID_1_" fill="#EF9C0D" d="M168.632,403.925c-5.338-3.278-37.979-29.644-63.312-29.599
			c-22.936,0.04-55.498,5.435-76.899,40.794c-3.438,6.869-6.525,26.756,35.376,45.37c47.95,21.306,90.276-29.251,113.463-34.881
			C190.951,422.286,188.281,415.983,168.632,403.925z"/>
	</g>
	<g>
		<g>
			<defs>
				<path id="SVGID_2_" d="M168.632,403.925c-5.338-3.278-37.979-29.644-63.312-29.599c-22.936,0.04-55.498,5.435-76.899,40.794
					c-3.438,6.869-6.525,26.756,35.376,45.37c47.95,21.306,90.276-29.251,113.463-34.881
					C190.951,422.286,188.281,415.983,168.632,403.925z"/>
			</defs>
			<clipPath id="SVGID_3_">
				<use xlink:href="#SVGID_2_"  overflow="visible"/>
			</clipPath>
			<path clip-path="url(#SVGID_3_)" fill="#D68421" d="M155.629,431.134c-70.017,42.967-133.441,1.031-133.441,1.031
				c56.203,90.495,169.358-6.354,170.117-12.07C192.304,420.094,167.968,423.56,155.629,431.134z"/>
		</g>
	</g>
	<g>
		<g>
			<defs>
				<path id="SVGID_4_" d="M168.632,403.925c-5.338-3.278-37.979-29.644-63.312-29.599c-22.936,0.04-55.498,5.435-76.899,40.794
					c-3.438,6.869-6.525,26.756,35.376,45.37c47.95,21.306,90.276-29.251,113.463-34.881
					C190.951,422.286,188.281,415.983,168.632,403.925z"/>
			</defs>
			<clipPath id="SVGID_5_">
				<use xlink:href="#SVGID_4_"  overflow="visible"/>
			</clipPath>
			<path clip-path="url(#SVGID_5_)" fill="#87235D" d="M72.868,368.737c0,0,10.925,15.09,13.679,27.433
				c2.754,12.341,7.755,10.105,4.42,23.847c-3.334,13.737-28.577,44.458-20.241,55.89c8.335,11.433,3.811,1.905,5-1.667
				c1.19-3.571,14.015-23.577,23.32-35.722c9.307-12.146,17.403-27.388,5.258-39.771c-12.146-12.383-21.434-27.625-23.577-30.007
				C78.582,366.356,71.815,367.223,72.868,368.737z"/>
		</g>
	</g>
	<g>
		<g>
			<defs>
				<path id="SVGID_6_" d="M168.632,403.925c-5.338-3.278-37.979-29.644-63.312-29.599c-22.936,0.04-55.498,5.435-76.899,40.794
					c-3.438,6.869-6.525,26.756,35.376,45.37c47.95,21.306,90.276-29.251,113.463-34.881
					C190.951,422.286,188.281,415.983,168.632,403.925z"/>
			</defs>
			<clipPath id="SVGID_7_">
				<use xlink:href="#SVGID_6_"  overflow="visible"/>
			</clipPath>
			<path clip-path="url(#SVGID_7_)" fill="#87235D" d="M104.065,371.118c0,0,2.268,7.257,7.087,13.868
				c4.82,6.613,11.013,12.328,13.395,16.854c2.383,4.523,8.335,7.963-1.429,24.938c-9.765,16.979-20.72,33.885-19.053,38.171
				c1.667,4.287,7.981,4.049,7.087,3.335c-0.896-0.716,1.963-9.524,10.536-19.29c8.573-9.765,20.506-24.291,21.327-30.246
				c0.819-5.951,5.188-15.003-5.212-20.479c-10.4-5.479-16.83-9.287-17.782-12.146C119.069,383.265,105.495,363.735,104.065,371.118
				z"/>
		</g>
	</g>
	<g>
		<g>
			<defs>
				<path id="SVGID_8_" d="M168.632,403.925c-5.338-3.278-37.979-29.644-63.312-29.599c-22.936,0.04-55.498,5.435-76.899,40.794
					c-3.438,6.869-6.525,26.756,35.376,45.37c47.95,21.306,90.276-29.251,113.463-34.881
					C190.951,422.286,188.281,415.983,168.632,403.925z"/>
			</defs>
			<clipPath id="SVGID_9_">
				<use xlink:href="#SVGID_8_"  overflow="visible"/>
			</clipPath>
			<path clip-path="url(#SVGID_9_)" fill="#87235D" d="M146.218,388.85c0,0,4.359,9.576,9.837,17.991
				c3.313,5.092,6.118,10.149,2.309,15.479c-6.915,9.673-13.967,20.624-12.622,25.498c1.905,6.906,3.334,1.19,3.811,0
				c0.478-1.189,7.364-15.457,15.004-25.021c3.479-4.355,1.953-13.402-1.43-15.479c-3.14-1.928-2.867-4.796-6.668-11.147
				C147.885,381.837,144.38,385.279,146.218,388.85z"/>
		</g>
	</g>
	<g>
		<g>
			<defs>
				<path id="SVGID_10_" d="M168.632,403.925c-5.338-3.278-37.979-29.644-63.312-29.599c-22.936,0.04-55.498,5.435-76.899,40.794
					c-3.438,6.869-6.525,26.756,35.376,45.37c47.95,21.306,90.276-29.251,113.463-34.881
					C190.951,422.286,188.281,415.983,168.632,403.925z"/>
			</defs>
			<clipPath id="SVGID_11_">
				<use xlink:href="#SVGID_10_"  overflow="visible"/>
			</clipPath>
			<ellipse clip-path="url(#SVGID_11_)" fill="#FFB564" cx="25.357" cy="415.917" rx="58.119" ry="45.02"/>
		</g>
	</g>
</g>
<g>
	<path fill="#FFFFFF" d="M78.132,411.471c0,8.454-6.854,15.308-15.307,15.308c-8.452,0-15.306-6.854-15.306-15.308
		c0-8.45,6.854-15.308,15.306-15.308C71.279,396.164,78.132,403.021,78.132,411.471z"/>
	<circle fill="#00A79D" cx="61.2" cy="410.422" r="6.604"/>
	<path fill="#231F20" d="M65.744,410.255c0,2.688-2.18,4.868-4.867,4.868c-2.689,0-4.869-2.181-4.869-4.868
		c0-2.688,2.18-4.868,4.869-4.868C63.565,405.386,65.744,407.567,65.744,410.255z"/>
</g>
<path fill="#43EFB6" d="M62.827,382.872c0,0,15.415-27.354,37.834-25.948c22.419,1.405,45.097,31.927,45.097,31.927
	c-16.311-5.801-29.689-11.341-43.07-12.584C80.98,374.244,62.827,382.872,62.827,382.872z"/>
<path fill="#43EFB6" d="M74.867,444.129c0,0,24.938,30.056,28.213,33.19c1.211,1.161,3.651,2.743,7.217,2.705
	c7.265-0.071,25.023-0.629,24.409-4.935c-0.696-4.871-55.333-30.963-55.333-30.963S71.044,438.991,74.867,444.129z"/>
<path fill="#D68421" d="M170.597,429.624"/>
<path fill="#A03838" d="M641.219,416.616c9.189-4.887,20.703-24.288,19.229-28.184c-18.979-3.562-38.188,1.974-54.889,21.167
	c-1.219,1.398-3.607,5.099-3.616,6.948c-0.002,0.021-0.005,0.043-0.005,0.066c0,0.022,0.003,0.046,0.005,0.068
	c0.009,1.848,2.397,5.549,3.616,6.948c16.7,19.191,35.91,24.727,54.889,21.165C661.923,440.903,650.409,421.506,641.219,416.616z">
<animate  fill="remove" dur="0.6s" accumulate="none" attributeName="d" values="        M641.219,416.616c9.19-4.887,20.703-24.288,19.229-28.184c-18.979-3.562-38.188,1.974-54.889,21.167    c-1.219,1.399-3.607,5.099-3.616,6.948c-0.002,0.022-0.005,0.043-0.005,0.067c0,0.022,0.003,0.046,0.005,0.068    c0.009,1.848,2.397,5.549,3.616,6.948c16.7,19.192,35.91,24.727,54.889,21.165C661.923,440.903,650.41,421.505,641.219,416.616z;     M625.594,416.616c5.628-4.156,13.056-24.288,11.582-28.184c-17.581-4.874-27.051,11.027-32.712,19.871    c-1.002,1.562-2.514,6.395-2.521,8.244c-0.002,0.022-0.005,0.043-0.005,0.067c0,0.022,0.003,0.046,0.005,0.068    c0.009,1.848,2.397,5.549,3.616,6.948c16.7,19.192,35.91,24.727,54.889,21.165C661.923,440.903,642.21,418.235,625.594,416.616z;     M625.594,416.616c5.535-4.887,12.47-24.288,11.582-28.184c-11.433-3.562-23,1.974-33.058,21.167    c-0.733,1.399-2.174,5.099-2.179,6.948c-0.001,0.022-0.003,0.043-0.003,0.067c0,0.022,0.002,0.046,0.003,0.068    c0.005,1.848,1.444,5.549,2.179,6.948c10.058,19.192,21.625,24.727,33.058,21.165C638.063,440.903,631.13,421.505,625.594,416.616z;     M625.594,416.616c5.628-4.156,13.056-24.288,11.582-28.184c-17.581-4.874-27.051,11.027-32.712,19.871    c-1.002,1.562-2.514,6.395-2.521,8.244c-0.002,0.022-0.005,0.043-0.005,0.067c0,0.022,0.003,0.046,0.005,0.068    c0.009,1.848,2.397,5.549,3.616,6.948c16.7,19.192,35.91,24.727,54.889,21.165C661.923,440.903,642.21,418.235,625.594,416.616z;     M641.219,416.616c9.19-4.887,20.703-24.288,19.229-28.184c-18.979-3.562-38.188,1.974-54.889,21.167    c-1.219,1.399-3.607,5.099-3.616,6.948c-0.002,0.022-0.005,0.043-0.005,0.067c0,0.022,0.003,0.046,0.005,0.068    c0.009,1.848,2.397,5.549,3.616,6.948c16.7,19.192,35.91,24.727,54.889,21.165C661.923,440.903,650.41,421.505,641.219,416.616z" restart="always" calcMode="linear" additive="replace" repeatCount="indefinite">
		</animate>
</path>
<g>
	<g>
		<path id="XMLID_7_" fill="#EF9D30" d="M574.897,439.344H405.269c-18.356,0-28.182-2.872-28.182-9.386
			c0-6.517,9.462-36.066,37.645-36.066h160.166c22.148,0,40.907,17.878,40.907,22.726
			C615.805,421.464,597.503,439.344,574.897,439.344z"/>
	</g>
	<g>
		<g>
			<defs>
				<path id="SVGID_12_" d="M574.897,439.344H405.269c-18.356,0-28.182-2.872-28.182-9.386c0-6.517,9.462-36.066,37.645-36.066
					h160.166c22.148,0,40.907,17.878,40.907,22.726C615.805,421.464,597.503,439.344,574.897,439.344z"/>
			</defs>
			<clipPath id="SVGID_13_">
				<use xlink:href="#SVGID_12_"  overflow="visible"/>
			</clipPath>
			<path clip-path="url(#SVGID_13_)" fill="#DD8C2A" d="M378.71,444.129c0,0-14.367-11.894-3.871-11.894
				c63.327,0,171.195,0,210.927,0c21.381,0,28.65-11.451,31.897-19.083c-3.869,11.336-8.298,30.977-54.482,30.977
				C516.993,444.129,378.71,444.129,378.71,444.129z"/>
		</g>
	</g>
	<g>
		<g>
			<defs>
				<path id="SVGID_14_" d="M574.897,439.344H405.269c-18.356,0-28.182-2.872-28.182-9.386c0-6.517,9.462-36.066,37.645-36.066
					h160.166c22.148,0,40.907,17.878,40.907,22.726C615.805,421.464,597.503,439.344,574.897,439.344z"/>
			</defs>
			<clipPath id="SVGID_15_">
				<use xlink:href="#SVGID_14_"  overflow="visible"/>
			</clipPath>
			<path clip-path="url(#SVGID_15_)" fill="#38909E" d="M494.036,407.695c-4.276,0.39-5.528,6.862-3.87,8.648
				s6.863,3.185,9.238,0.271C501.781,413.703,499.289,407.217,494.036,407.695z"/>
		</g>
	</g>
	<g>
		<g>
			<defs>
				<path id="SVGID_16_" d="M574.897,439.344H405.269c-18.356,0-28.182-2.872-28.182-9.386c0-6.517,9.462-36.066,37.645-36.066
					h160.166c22.148,0,40.907,17.878,40.907,22.726C615.805,421.464,597.503,439.344,574.897,439.344z"/>
			</defs>
			<clipPath id="SVGID_17_">
				<use xlink:href="#SVGID_16_"  overflow="visible"/>
			</clipPath>
			<path clip-path="url(#SVGID_17_)" fill="#38909E" d="M504.469,416.147c-2.432,0.223-3.145,3.902-2.2,4.917
				c0.943,1.018,3.903,1.812,5.254,0.155C508.872,419.563,507.455,415.874,504.469,416.147z"/>
		</g>
	</g>
	<g>
		<g>
			<defs>
				<path id="SVGID_18_" d="M574.897,439.344H405.269c-18.356,0-28.182-2.872-28.182-9.386c0-6.517,9.462-36.066,37.645-36.066
					h160.166c22.148,0,40.907,17.878,40.907,22.726C615.805,421.464,597.503,439.344,574.897,439.344z"/>
			</defs>
			<clipPath id="SVGID_19_">
				<use xlink:href="#SVGID_18_"  overflow="visible"/>
			</clipPath>
			<path clip-path="url(#SVGID_19_)" fill="#38909E" d="M530.975,428.014c-1.88,0.171-2.435,3.021-1.703,3.808
				s3.023,1.403,4.068,0.12C534.387,430.66,533.288,427.802,530.975,428.014z"/>
		</g>
	</g>
	<g>
		<g>
			<defs>
				<path id="SVGID_20_" d="M574.897,439.344H405.269c-18.356,0-28.182-2.872-28.182-9.386c0-6.517,9.462-36.066,37.645-36.066
					h160.166c22.148,0,40.907,17.878,40.907,22.726C615.805,421.464,597.503,439.344,574.897,439.344z"/>
			</defs>
			<clipPath id="SVGID_21_">
				<use xlink:href="#SVGID_20_"  overflow="visible"/>
			</clipPath>
			<path clip-path="url(#SVGID_21_)" fill="#38909E" d="M506.947,425.674c-1.881,0.172-2.434,3.021-1.703,3.808
				c0.729,0.789,3.023,1.404,4.068,0.121C510.358,428.321,509.263,425.464,506.947,425.674z"/>
		</g>
	</g>
	<g>
		<g>
			<defs>
				<path id="SVGID_22_" d="M574.897,439.344H405.269c-18.356,0-28.182-2.872-28.182-9.386c0-6.517,9.462-36.066,37.645-36.066
					h160.166c22.148,0,40.907,17.878,40.907,22.726C615.805,421.464,597.503,439.344,574.897,439.344z"/>
			</defs>
			<clipPath id="SVGID_23_">
				<use xlink:href="#SVGID_22_"  overflow="visible"/>
			</clipPath>
			<path clip-path="url(#SVGID_23_)" fill="#38909E" d="M513.553,411.558c-1.882,0.173-2.437,3.021-1.703,3.809
				c0.729,0.784,3.021,1.4,4.068,0.12C516.965,414.202,515.866,411.348,513.553,411.558z"/>
		</g>
	</g>
	<g>
		<g>
			<defs>
				<path id="SVGID_24_" d="M574.897,439.344H405.269c-18.356,0-28.182-2.872-28.182-9.386c0-6.517,9.462-36.066,37.645-36.066
					h160.166c22.148,0,40.907,17.878,40.907,22.726C615.805,421.464,597.503,439.344,574.897,439.344z"/>
			</defs>
			<clipPath id="SVGID_25_">
				<use xlink:href="#SVGID_24_"  overflow="visible"/>
			</clipPath>
			<path clip-path="url(#SVGID_25_)" fill="#38909E" d="M583.52,429.971c-1.882,0.172-2.435,3.021-1.703,3.808
				c0.729,0.785,3.021,1.4,4.066,0.12C586.93,432.615,585.832,429.76,583.52,429.971z"/>
		</g>
	</g>
	<g>
		<g>
			<defs>
				<path id="SVGID_26_" d="M574.897,439.344H405.269c-18.356,0-28.182-2.872-28.182-9.386c0-6.517,9.462-36.066,37.645-36.066
					h160.166c22.148,0,40.907,17.878,40.907,22.726C615.805,421.464,597.503,439.344,574.897,439.344z"/>
			</defs>
			<clipPath id="SVGID_27_">
				<use xlink:href="#SVGID_26_"  overflow="visible"/>
			</clipPath>
			<path clip-path="url(#SVGID_27_)" fill="#38909E" d="M591.779,411.558c-1.882,0.173-2.435,3.021-1.703,3.809
				c0.729,0.784,3.021,1.4,4.066,0.12C595.19,414.202,594.094,411.348,591.779,411.558z"/>
		</g>
	</g>
	<g>
		<g>
			<defs>
				<path id="SVGID_28_" d="M574.897,439.344H405.269c-18.356,0-28.182-2.872-28.182-9.386c0-6.517,9.462-36.066,37.645-36.066
					h160.166c22.148,0,40.907,17.878,40.907,22.726C615.805,421.464,597.503,439.344,574.897,439.344z"/>
			</defs>
			<clipPath id="SVGID_29_">
				<use xlink:href="#SVGID_28_"  overflow="visible"/>
			</clipPath>
			<path clip-path="url(#SVGID_29_)" fill="#38909E" d="M496.493,423.337c-1.882,0.172-2.435,3.021-1.702,3.809
				c0.729,0.784,3.021,1.4,4.066,0.12C499.905,425.98,498.809,423.124,496.493,423.337z"/>
		</g>
	</g>
	<g>
		<g>
			<defs>
				<path id="SVGID_30_" d="M574.897,439.344H405.269c-18.356,0-28.182-2.872-28.182-9.386c0-6.517,9.462-36.066,37.645-36.066
					h160.166c22.148,0,40.907,17.878,40.907,22.726C615.805,421.464,597.503,439.344,574.897,439.344z"/>
			</defs>
			<clipPath id="SVGID_31_">
				<use xlink:href="#SVGID_30_"  overflow="visible"/>
			</clipPath>
			<path clip-path="url(#SVGID_31_)" fill="#38909E" d="M548.073,436.409c-1.881,0.172-2.435,3.021-1.703,3.811
				c0.729,0.787,3.022,1.401,4.067,0.12C551.485,439.058,550.388,436.198,548.073,436.409z"/>
		</g>
	</g>
	<g>
		<g>
			<defs>
				<path id="SVGID_32_" d="M574.897,439.344H405.269c-18.356,0-28.182-2.872-28.182-9.386c0-6.517,9.462-36.066,37.645-36.066
					h160.166c22.148,0,40.907,17.878,40.907,22.726C615.805,421.464,597.503,439.344,574.897,439.344z"/>
			</defs>
			<clipPath id="SVGID_33_">
				<use xlink:href="#SVGID_32_"  overflow="visible"/>
			</clipPath>
			<path clip-path="url(#SVGID_33_)" fill="#38909E" d="M563.02,412.235c-2.251,0.205-2.912,3.614-2.039,4.555
				c0.873,0.939,3.615,1.681,4.867,0.146S565.786,411.983,563.02,412.235z"/>
		</g>
	</g>
	<g>
		<g>
			<defs>
				<path id="SVGID_34_" d="M574.897,439.344H405.269c-18.356,0-28.182-2.872-28.182-9.386c0-6.517,9.462-36.066,37.645-36.066
					h160.166c22.148,0,40.907,17.878,40.907,22.726C615.805,421.464,597.503,439.344,574.897,439.344z"/>
			</defs>
			<clipPath id="SVGID_35_">
				<use xlink:href="#SVGID_34_"  overflow="visible"/>
			</clipPath>
			<path clip-path="url(#SVGID_35_)" fill="#38909E" d="M538.849,431.406c-2.25,0.208-2.911,3.614-2.038,4.559
				c0.874,0.938,3.615,1.676,4.866,0.143C542.93,434.573,541.616,431.153,538.849,431.406z"/>
		</g>
	</g>
	<g>
		<g>
			<defs>
				<path id="SVGID_36_" d="M574.897,439.344H405.269c-18.356,0-28.182-2.872-28.182-9.386c0-6.517,9.462-36.066,37.645-36.066
					h160.166c22.148,0,40.907,17.878,40.907,22.726C615.805,421.464,597.503,439.344,574.897,439.344z"/>
			</defs>
			<clipPath id="SVGID_37_">
				<use xlink:href="#SVGID_36_"  overflow="visible"/>
			</clipPath>
			<path clip-path="url(#SVGID_37_)" fill="#38909E" d="M598.953,397.2c-2.251,0.207-2.912,3.615-2.038,4.559
				c0.873,0.938,3.615,1.675,4.866,0.143C603.034,400.366,601.723,396.949,598.953,397.2z"/>
		</g>
	</g>
	<g>
		<g>
			<defs>
				<path id="SVGID_38_" d="M574.897,439.344H405.269c-18.356,0-28.182-2.872-28.182-9.386c0-6.517,9.462-36.066,37.645-36.066
					h160.166c22.148,0,40.907,17.878,40.907,22.726C615.805,421.464,597.503,439.344,574.897,439.344z"/>
			</defs>
			<clipPath id="SVGID_39_">
				<use xlink:href="#SVGID_38_"  overflow="visible"/>
			</clipPath>
			<path clip-path="url(#SVGID_39_)" fill="#38909E" d="M558.962,403.077c-2.25,0.206-2.911,3.615-2.038,4.558
				c0.874,0.938,3.613,1.677,4.864,0.143C563.041,406.241,561.729,402.826,558.962,403.077z"/>
		</g>
	</g>
	<g>
		<g>
			<defs>
				<path id="SVGID_40_" d="M574.897,439.344H405.269c-18.356,0-28.182-2.872-28.182-9.386c0-6.517,9.462-36.066,37.645-36.066
					h160.166c22.148,0,40.907,17.878,40.907,22.726C615.805,421.464,597.503,439.344,574.897,439.344z"/>
			</defs>
			<clipPath id="SVGID_41_">
				<use xlink:href="#SVGID_40_"  overflow="visible"/>
			</clipPath>
			<path clip-path="url(#SVGID_41_)" fill="#38909E" d="M537.452,411.102c-2.252,0.203-2.913,3.614-2.039,4.553
				c0.873,0.94,3.615,1.679,4.866,0.146C541.532,414.266,540.221,410.849,537.452,411.102z"/>
		</g>
	</g>
	<g>
		<g>
			<defs>
				<path id="SVGID_42_" d="M574.897,439.344H405.269c-18.356,0-28.182-2.872-28.182-9.386c0-6.517,9.462-36.066,37.645-36.066
					h160.166c22.148,0,40.907,17.878,40.907,22.726C615.805,421.464,597.503,439.344,574.897,439.344z"/>
			</defs>
			<clipPath id="SVGID_43_">
				<use xlink:href="#SVGID_42_"  overflow="visible"/>
			</clipPath>
			<path clip-path="url(#SVGID_43_)" fill="#38909E" d="M502.721,435.081c-2.251,0.204-2.913,3.613-2.039,4.556
				c0.873,0.938,3.615,1.679,4.866,0.143C506.802,438.244,505.488,434.828,502.721,435.081z"/>
		</g>
	</g>
	<g>
		<g>
			<defs>
				<path id="SVGID_44_" d="M574.897,439.344H405.269c-18.356,0-28.182-2.872-28.182-9.386c0-6.517,9.462-36.066,37.645-36.066
					h160.166c22.148,0,40.907,17.878,40.907,22.726C615.805,421.464,597.503,439.344,574.897,439.344z"/>
			</defs>
			<clipPath id="SVGID_45_">
				<use xlink:href="#SVGID_44_"  overflow="visible"/>
			</clipPath>
			<path clip-path="url(#SVGID_45_)" fill="#38909E" d="M561.82,430.107c-2.251,0.203-2.912,3.613-2.039,4.553
				c0.874,0.939,3.615,1.681,4.867,0.146C565.9,433.271,564.589,429.854,561.82,430.107z"/>
		</g>
	</g>
	<g>
		<g>
			<defs>
				<path id="SVGID_46_" d="M574.897,439.344H405.269c-18.356,0-28.182-2.872-28.182-9.386c0-6.517,9.462-36.066,37.645-36.066
					h160.166c22.148,0,40.907,17.878,40.907,22.726C615.805,421.464,597.503,439.344,574.897,439.344z"/>
			</defs>
			<clipPath id="SVGID_47_">
				<use xlink:href="#SVGID_46_"  overflow="visible"/>
			</clipPath>
			<path clip-path="url(#SVGID_47_)" fill="#38909E" d="M545.686,404.328c-1.882,0.174-2.436,3.022-1.703,3.811
				c0.729,0.786,3.021,1.399,4.066,0.12C549.096,406.976,547.998,404.117,545.686,404.328z"/>
		</g>
	</g>
	<g>
		<g>
			<defs>
				<path id="SVGID_48_" d="M574.897,439.344H405.269c-18.356,0-28.182-2.872-28.182-9.386c0-6.517,9.462-36.066,37.645-36.066
					h160.166c22.148,0,40.907,17.878,40.907,22.726C615.805,421.464,597.503,439.344,574.897,439.344z"/>
			</defs>
			<clipPath id="SVGID_49_">
				<use xlink:href="#SVGID_48_"  overflow="visible"/>
			</clipPath>
			<path clip-path="url(#SVGID_49_)" fill="#38909E" d="M548.073,395.442c-1.881,0.172-2.435,3.021-1.703,3.811
				c0.729,0.784,3.022,1.399,4.067,0.118C551.485,398.09,550.388,395.231,548.073,395.442z"/>
		</g>
	</g>
	<g>
		<g>
			<defs>
				<path id="SVGID_50_" d="M574.897,439.344H405.269c-18.356,0-28.182-2.872-28.182-9.386c0-6.517,9.462-36.066,37.645-36.066
					h160.166c22.148,0,40.907,17.878,40.907,22.726C615.805,421.464,597.503,439.344,574.897,439.344z"/>
			</defs>
			<clipPath id="SVGID_51_">
				<use xlink:href="#SVGID_50_"  overflow="visible"/>
			</clipPath>
			<path clip-path="url(#SVGID_51_)" fill="#38909E" d="M527.221,408.76c-1.882,0.172-2.437,3.021-1.703,3.808
				c0.729,0.786,3.021,1.402,4.067,0.121C530.633,411.406,529.534,408.551,527.221,408.76z"/>
		</g>
	</g>
	<g>
		<g>
			<defs>
				<path id="SVGID_52_" d="M574.897,439.344H405.269c-18.356,0-28.182-2.872-28.182-9.386c0-6.517,9.462-36.066,37.645-36.066
					h160.166c22.148,0,40.907,17.878,40.907,22.726C615.805,421.464,597.503,439.344,574.897,439.344z"/>
			</defs>
			<clipPath id="SVGID_53_">
				<use xlink:href="#SVGID_52_"  overflow="visible"/>
			</clipPath>
			<path clip-path="url(#SVGID_53_)" fill="#38909E" d="M524.852,416.79c-1.268,0.325-3.012,1.006-2.737,3.601
				c0.272,2.594,2.19,6.46,4.93,6.441c2.735-0.02,3.013-1.549,4.104-3.657C532.242,421.064,528.685,415.802,524.852,416.79z"/>
		</g>
	</g>
	<g>
		<g>
			<defs>
				<path id="SVGID_54_" d="M574.897,439.344H405.269c-18.356,0-28.182-2.872-28.182-9.386c0-6.517,9.462-36.066,37.645-36.066
					h160.166c22.148,0,40.907,17.878,40.907,22.726C615.805,421.464,597.503,439.344,574.897,439.344z"/>
			</defs>
			<clipPath id="SVGID_55_">
				<use xlink:href="#SVGID_54_"  overflow="visible"/>
			</clipPath>
			<path clip-path="url(#SVGID_55_)" fill="#38909E" d="M512.061,392.81c-1.268,0.327-3.012,1.004-2.737,3.599
				c0.272,2.597,2.191,6.461,4.931,6.444c2.734-0.02,3.012-1.549,4.104-3.659C519.453,397.084,515.894,391.82,512.061,392.81z"/>
		</g>
	</g>
	<g>
		<g>
			<defs>
				<path id="SVGID_56_" d="M574.897,439.344H405.269c-18.356,0-28.182-2.872-28.182-9.386c0-6.517,9.462-36.066,37.645-36.066
					h160.166c22.148,0,40.907,17.878,40.907,22.726C615.805,421.464,597.503,439.344,574.897,439.344z"/>
			</defs>
			<clipPath id="SVGID_57_">
				<use xlink:href="#SVGID_56_"  overflow="visible"/>
			</clipPath>
			<path clip-path="url(#SVGID_57_)" fill="#38909E" d="M536.032,388.931c-1.268,0.326-3.012,1.005-2.735,3.6
				c0.271,2.593,2.188,6.459,4.928,6.443c2.737-0.02,3.013-1.55,4.104-3.659C543.426,393.205,539.865,387.94,536.032,388.931z"/>
		</g>
	</g>
	<g>
		<g>
			<defs>
				<path id="SVGID_58_" d="M574.897,439.344H405.269c-18.356,0-28.182-2.872-28.182-9.386c0-6.517,9.462-36.066,37.645-36.066
					h160.166c22.148,0,40.907,17.878,40.907,22.726C615.805,421.464,597.503,439.344,574.897,439.344z"/>
			</defs>
			<clipPath id="SVGID_59_">
				<use xlink:href="#SVGID_58_"  overflow="visible"/>
			</clipPath>
			<path clip-path="url(#SVGID_59_)" fill="#38909E" d="M550.239,422.847c-1.267,0.327-3.01,1.005-2.735,3.601
				c0.271,2.593,2.19,6.46,4.929,6.443c2.737-0.021,3.013-1.549,4.104-3.659C557.634,427.121,554.072,421.858,550.239,422.847z"/>
		</g>
	</g>
	<g>
		<g>
			<defs>
				<path id="SVGID_60_" d="M574.897,439.344H405.269c-18.356,0-28.182-2.872-28.182-9.386c0-6.517,9.462-36.066,37.645-36.066
					h160.166c22.148,0,40.907,17.878,40.907,22.726C615.805,421.464,597.503,439.344,574.897,439.344z"/>
			</defs>
			<clipPath id="SVGID_61_">
				<use xlink:href="#SVGID_60_"  overflow="visible"/>
			</clipPath>
			<path clip-path="url(#SVGID_61_)" fill="#38909E" d="M565.046,437.973c-0.476,1.219-0.938,3.033,1.332,4.32
				c2.267,1.29,6.525,1.979,8.105-0.258c1.58-2.231,0.496-3.349-0.583-5.468C572.824,434.448,566.472,434.281,565.046,437.973z"/>
		</g>
	</g>
	<g>
		<g>
			<defs>
				<path id="SVGID_62_" d="M574.897,439.344H405.269c-18.356,0-28.182-2.872-28.182-9.386c0-6.517,9.462-36.066,37.645-36.066
					h160.166c22.148,0,40.907,17.878,40.907,22.726C615.805,421.464,597.503,439.344,574.897,439.344z"/>
			</defs>
			<clipPath id="SVGID_63_">
				<use xlink:href="#SVGID_62_"  overflow="visible"/>
			</clipPath>
			<path clip-path="url(#SVGID_63_)" fill="#38909E" d="M567.666,400.108c-1.269,0.326-3.013,1.005-2.736,3.599
				c0.271,2.597,2.188,6.463,4.928,6.444c2.737-0.019,3.013-1.549,4.105-3.659C575.059,404.384,571.496,399.118,567.666,400.108z"/>
		</g>
	</g>
	<g>
		<g>
			<defs>
				<path id="SVGID_64_" d="M574.897,439.344H405.269c-18.356,0-28.182-2.872-28.182-9.386c0-6.517,9.462-36.066,37.645-36.066
					h160.166c22.148,0,40.907,17.878,40.907,22.726C615.805,421.464,597.503,439.344,574.897,439.344z"/>
			</defs>
			<clipPath id="SVGID_65_">
				<use xlink:href="#SVGID_64_"  overflow="visible"/>
			</clipPath>
			<path clip-path="url(#SVGID_65_)" fill="#38909E" d="M579.638,388.93c-1.27,0.327-3.011,1.005-2.737,3.6
				c0.272,2.594,2.19,6.46,4.928,6.444c2.737-0.021,3.015-1.55,4.107-3.659C587.03,393.203,583.47,387.94,579.638,388.93z"/>
		</g>
	</g>
	<g>
		<g>
			<defs>
				<path id="SVGID_66_" d="M574.897,439.344H405.269c-18.356,0-28.182-2.872-28.182-9.386c0-6.517,9.462-36.066,37.645-36.066
					h160.166c22.148,0,40.907,17.878,40.907,22.726C615.805,421.464,597.503,439.344,574.897,439.344z"/>
			</defs>
			<clipPath id="SVGID_67_">
				<use xlink:href="#SVGID_66_"  overflow="visible"/>
			</clipPath>
			<path clip-path="url(#SVGID_67_)" fill="#38909E" d="M519.853,428.311c-0.916-0.693-2.335-1.526-3.97,0.075
				c-1.64,1.601-3.254,5.028-1.753,6.901c1.504,1.876,2.708,1.231,4.756,0.837C520.935,435.73,522.619,430.411,519.853,428.311z"/>
		</g>
	</g>
	<g>
		<g>
			<defs>
				<path id="SVGID_68_" d="M574.897,439.344H405.269c-18.356,0-28.182-2.872-28.182-9.386c0-6.517,9.462-36.066,37.645-36.066
					h160.166c22.148,0,40.907,17.878,40.907,22.726C615.805,421.464,597.503,439.344,574.897,439.344z"/>
			</defs>
			<clipPath id="SVGID_69_">
				<use xlink:href="#SVGID_68_"  overflow="visible"/>
			</clipPath>
			<path clip-path="url(#SVGID_69_)" fill="#38909E" d="M600.858,418.052c-0.916-0.698-2.333-1.527-3.969,0.072
				c-1.639,1.6-3.254,5.026-1.754,6.903c1.505,1.873,2.708,1.229,4.757,0.833C601.94,425.467,603.625,420.147,600.858,418.052z"/>
		</g>
	</g>
	<g>
		<g>
			<defs>
				<path id="SVGID_70_" d="M574.897,439.344H405.269c-18.356,0-28.182-2.872-28.182-9.386c0-6.517,9.462-36.066,37.645-36.066
					h160.166c22.148,0,40.907,17.878,40.907,22.726C615.805,421.464,597.503,439.344,574.897,439.344z"/>
			</defs>
			<clipPath id="SVGID_71_">
				<use xlink:href="#SVGID_70_"  overflow="visible"/>
			</clipPath>
			<path clip-path="url(#SVGID_71_)" fill="#38909E" d="M560.341,390.188c-0.914-0.694-2.333-1.526-3.97,0.076
				c-1.639,1.599-3.255,5.025-1.753,6.899c1.503,1.876,2.707,1.231,4.755,0.835C561.424,397.605,563.108,392.286,560.341,390.188z"
				/>
		</g>
	</g>
	<g>
		<g>
			<defs>
				<path id="SVGID_72_" d="M574.897,439.344H405.269c-18.356,0-28.182-2.872-28.182-9.386c0-6.517,9.462-36.066,37.645-36.066
					h160.166c22.148,0,40.907,17.878,40.907,22.726C615.805,421.464,597.503,439.344,574.897,439.344z"/>
			</defs>
			<clipPath id="SVGID_73_">
				<use xlink:href="#SVGID_72_"  overflow="visible"/>
			</clipPath>
			<path clip-path="url(#SVGID_73_)" fill="#38909E" d="M596.976,430.489c-0.915-0.691-2.334-1.524-3.969,0.077
				c-1.64,1.599-3.255,5.027-1.753,6.9c1.503,1.877,2.707,1.23,4.756,0.837C598.058,437.907,599.743,432.59,596.976,430.489z"/>
		</g>
	</g>
	<g>
		<g>
			<defs>
				<path id="SVGID_74_" d="M574.897,439.344H405.269c-18.356,0-28.182-2.872-28.182-9.386c0-6.517,9.462-36.066,37.645-36.066
					h160.166c22.148,0,40.907,17.878,40.907,22.726C615.805,421.464,597.503,439.344,574.897,439.344z"/>
			</defs>
			<clipPath id="SVGID_75_">
				<use xlink:href="#SVGID_74_"  overflow="visible"/>
			</clipPath>
			<path clip-path="url(#SVGID_75_)" fill="#38909E" d="M585.522,406.531c0.262,0.946,0.795,2.247,2.741,2.005
				c1.942-0.237,4.825-1.733,4.771-3.791c-0.052-2.058-1.205-2.242-2.807-3.035C588.633,400.914,584.725,403.662,585.522,406.531z"
				/>
		</g>
	</g>
	<g>
		<g>
			<defs>
				<path id="SVGID_76_" d="M574.897,439.344H405.269c-18.356,0-28.182-2.872-28.182-9.386c0-6.517,9.462-36.066,37.645-36.066
					h160.166c22.148,0,40.907,17.878,40.907,22.726C615.805,421.464,597.503,439.344,574.897,439.344z"/>
			</defs>
			<clipPath id="SVGID_77_">
				<use xlink:href="#SVGID_76_"  overflow="visible"/>
			</clipPath>
			<path clip-path="url(#SVGID_77_)" fill="#38909E" d="M584,424.188c0.264,0.946,0.797,2.246,2.741,2.007
				c1.944-0.24,4.825-1.737,4.773-3.792c-0.052-2.059-1.205-2.243-2.808-3.037C587.11,418.573,583.202,421.32,584,424.188z"/>
		</g>
	</g>
	<g>
		<g>
			<defs>
				<path id="SVGID_78_" d="M574.897,439.344H405.269c-18.356,0-28.182-2.872-28.182-9.386c0-6.517,9.462-36.066,37.645-36.066
					h160.166c22.148,0,40.907,17.878,40.907,22.726C615.805,421.464,597.503,439.344,574.897,439.344z"/>
			</defs>
			<clipPath id="SVGID_79_">
				<use xlink:href="#SVGID_78_"  overflow="visible"/>
			</clipPath>
			<path clip-path="url(#SVGID_79_)" fill="#38909E" d="M573.744,421.812c0.104,0.639,0.358,1.526,1.646,1.511
				c1.287-0.017,3.275-0.779,3.395-2.13c0.114-1.344-0.624-1.549-1.609-2.185C576.186,418.377,573.434,419.885,573.744,421.812z"/>
		</g>
	</g>
	<g>
		<g>
			<defs>
				<path id="SVGID_80_" d="M574.897,439.344H405.269c-18.356,0-28.182-2.872-28.182-9.386c0-6.517,9.462-36.066,37.645-36.066
					h160.166c22.148,0,40.907,17.878,40.907,22.726C615.805,421.464,597.503,439.344,574.897,439.344z"/>
			</defs>
			<clipPath id="SVGID_81_">
				<use xlink:href="#SVGID_80_"  overflow="visible"/>
			</clipPath>
			<path clip-path="url(#SVGID_81_)" fill="#38909E" d="M572.767,430.148c0.104,0.639,0.358,1.527,1.646,1.511
				c1.286-0.017,3.275-0.779,3.395-2.13c0.115-1.345-0.624-1.549-1.611-2.185C575.206,426.711,572.455,428.221,572.767,430.148z"/>
		</g>
	</g>
	<g>
		<g>
			<defs>
				<path id="SVGID_82_" d="M574.897,439.344H405.269c-18.356,0-28.182-2.872-28.182-9.386c0-6.517,9.462-36.066,37.645-36.066
					h160.166c22.148,0,40.907,17.878,40.907,22.726C615.805,421.464,597.503,439.344,574.897,439.344z"/>
			</defs>
			<clipPath id="SVGID_83_">
				<use xlink:href="#SVGID_82_"  overflow="visible"/>
			</clipPath>
			<path clip-path="url(#SVGID_83_)" fill="#38909E" d="M496.893,401.926c0.104,0.636,0.357,1.522,1.646,1.51
				c1.286-0.015,3.275-0.783,3.395-2.129c0.115-1.345-0.624-1.551-1.61-2.188C499.332,398.488,496.582,399.993,496.893,401.926z"/>
		</g>
	</g>
	<g>
		<g>
			<defs>
				<path id="SVGID_84_" d="M574.897,439.344H405.269c-18.356,0-28.182-2.872-28.182-9.386c0-6.517,9.462-36.066,37.645-36.066
					h160.166c22.148,0,40.907,17.878,40.907,22.726C615.805,421.464,597.503,439.344,574.897,439.344z"/>
			</defs>
			<clipPath id="SVGID_85_">
				<use xlink:href="#SVGID_84_"  overflow="visible"/>
			</clipPath>
			<path clip-path="url(#SVGID_85_)" fill="#38909E" d="M527.618,399.693c0.104,0.639,0.358,1.526,1.646,1.51
				c1.287-0.015,3.274-0.778,3.394-2.129c0.114-1.345-0.624-1.549-1.609-2.185C530.061,396.257,527.308,397.765,527.618,399.693z"/>
		</g>
	</g>
	<g>
		<g>
			<defs>
				<path id="SVGID_86_" d="M574.897,439.344H405.269c-18.356,0-28.182-2.872-28.182-9.386c0-6.517,9.462-36.066,37.645-36.066
					h160.166c22.148,0,40.907,17.878,40.907,22.726C615.805,421.464,597.503,439.344,574.897,439.344z"/>
			</defs>
			<clipPath id="SVGID_87_">
				<use xlink:href="#SVGID_86_"  overflow="visible"/>
			</clipPath>
			<path clip-path="url(#SVGID_87_)" fill="#38909E" d="M568.672,415.173c0.104,0.639,0.356,1.525,1.646,1.511
				c1.287-0.016,3.276-0.781,3.396-2.129c0.112-1.348-0.624-1.55-1.611-2.187C571.113,411.734,568.36,413.243,568.672,415.173z"/>
		</g>
	</g>
	<g>
		<g>
			<defs>
				<path id="SVGID_88_" d="M574.897,439.344H405.269c-18.356,0-28.182-2.872-28.182-9.386c0-6.517,9.462-36.066,37.645-36.066
					h160.166c22.148,0,40.907,17.878,40.907,22.726C615.805,421.464,597.503,439.344,574.897,439.344z"/>
			</defs>
			<clipPath id="SVGID_89_">
				<use xlink:href="#SVGID_88_"  overflow="visible"/>
			</clipPath>
			<path clip-path="url(#SVGID_89_)" fill="#38909E" d="M576.896,405.036c0.104,0.641,0.358,1.526,1.646,1.513
				c1.286-0.017,3.276-0.781,3.396-2.131c0.114-1.346-0.624-1.55-1.611-2.186C579.337,401.601,576.585,403.108,576.896,405.036z"/>
		</g>
	</g>
	<g>
		<g>
			<defs>
				<path id="SVGID_90_" d="M574.897,439.344H405.269c-18.356,0-28.182-2.872-28.182-9.386c0-6.517,9.462-36.066,37.645-36.066
					h160.166c22.148,0,40.907,17.878,40.907,22.726C615.805,421.464,597.503,439.344,574.897,439.344z"/>
			</defs>
			<clipPath id="SVGID_91_">
				<use xlink:href="#SVGID_90_"  overflow="visible"/>
			</clipPath>
			<path clip-path="url(#SVGID_91_)" fill="#38909E" d="M533.291,422.472c0.104,0.638,0.356,1.523,1.646,1.509
				c1.287-0.015,3.277-0.784,3.394-2.128c0.115-1.346-0.624-1.551-1.608-2.185C535.731,419.031,532.979,420.544,533.291,422.472z"/>
		</g>
	</g>
	<g>
		<g>
			<defs>
				<path id="SVGID_92_" d="M574.897,439.344H405.269c-18.356,0-28.182-2.872-28.182-9.386c0-6.517,9.462-36.066,37.645-36.066
					h160.166c22.148,0,40.907,17.878,40.907,22.726C615.805,421.464,597.503,439.344,574.897,439.344z"/>
			</defs>
			<clipPath id="SVGID_93_">
				<use xlink:href="#SVGID_92_"  overflow="visible"/>
			</clipPath>
			<path clip-path="url(#SVGID_93_)" fill="#38909E" d="M537.925,427.554c0.104,0.638,0.356,1.523,1.646,1.509
				c1.286-0.016,3.276-0.784,3.395-2.128c0.113-1.346-0.624-1.55-1.61-2.187C540.364,424.114,537.613,425.624,537.925,427.554z"/>
		</g>
	</g>
	<g>
		<g>
			<defs>
				<path id="SVGID_94_" d="M574.897,439.344H405.269c-18.356,0-28.182-2.872-28.182-9.386c0-6.517,9.462-36.066,37.645-36.066
					h160.166c22.148,0,40.907,17.878,40.907,22.726C615.805,421.464,597.503,439.344,574.897,439.344z"/>
			</defs>
			<clipPath id="SVGID_95_">
				<use xlink:href="#SVGID_94_"  overflow="visible"/>
			</clipPath>
			<path clip-path="url(#SVGID_95_)" fill="#38909E" d="M513.073,422.472c0.104,0.638,0.358,1.523,1.646,1.509
				c1.286-0.015,3.274-0.784,3.393-2.128c0.115-1.346-0.624-1.551-1.608-2.185C515.514,419.031,512.763,420.544,513.073,422.472z"/>
		</g>
	</g>
	<g>
		<g>
			<defs>
				<path id="SVGID_96_" d="M574.897,439.344H405.269c-18.356,0-28.182-2.872-28.182-9.386c0-6.517,9.462-36.066,37.645-36.066
					h160.166c22.148,0,40.907,17.878,40.907,22.726C615.805,421.464,597.503,439.344,574.897,439.344z"/>
			</defs>
			<clipPath id="SVGID_97_">
				<use xlink:href="#SVGID_96_"  overflow="visible"/>
			</clipPath>
			<path clip-path="url(#SVGID_97_)" fill="#38909E" d="M599.427,408.925c0.104,0.637,0.355,1.522,1.645,1.511
				c1.287-0.017,3.277-0.785,3.396-2.13c0.113-1.345-0.623-1.551-1.61-2.188C601.865,405.485,599.114,406.992,599.427,408.925z"/>
		</g>
	</g>
	<g>
		<g>
			<defs>
				<path id="SVGID_98_" d="M574.897,439.344H405.269c-18.356,0-28.182-2.872-28.182-9.386c0-6.517,9.462-36.066,37.645-36.066
					h160.166c22.148,0,40.907,17.878,40.907,22.726C615.805,421.464,597.503,439.344,574.897,439.344z"/>
			</defs>
			<clipPath id="SVGID_99_">
				<use xlink:href="#SVGID_98_"  overflow="visible"/>
			</clipPath>
			<path clip-path="url(#SVGID_99_)" fill="#38909E" d="M508.271,405.24c-1.149-0.444-2.319,0.324-3.085,2.341
				c-0.611,1.607,0.1,1.925,0.696,2.341C508.09,411.46,511.718,406.587,508.271,405.24z"/>
		</g>
	</g>
	<g>
		<g>
			<defs>
				<path id="SVGID_100_" d="M574.897,439.344H405.269c-18.356,0-28.182-2.872-28.182-9.386c0-6.517,9.462-36.066,37.645-36.066
					h160.166c22.148,0,40.907,17.878,40.907,22.726C615.805,421.464,597.503,439.344,574.897,439.344z"/>
			</defs>
			<clipPath id="SVGID_101_">
				<use xlink:href="#SVGID_100_"  overflow="visible"/>
			</clipPath>
			<path clip-path="url(#SVGID_101_)" fill="#38909E" d="M553.885,408.435c-2.154-0.842-4.35,0.604-5.786,4.385
				c-1.146,3.016,0.188,3.607,1.308,4.387C553.545,420.09,560.349,410.951,553.885,408.435z"/>
		</g>
	</g>
	<g>
		<g>
			<defs>
				<path id="SVGID_102_" d="M574.897,439.344H405.269c-18.356,0-28.182-2.872-28.182-9.386c0-6.517,9.462-36.066,37.645-36.066
					h160.166c22.148,0,40.907,17.878,40.907,22.726C615.805,421.464,597.503,439.344,574.897,439.344z"/>
			</defs>
			<clipPath id="SVGID_103_">
				<use xlink:href="#SVGID_102_"  overflow="visible"/>
			</clipPath>
			<path clip-path="url(#SVGID_103_)" fill="#38909E" d="M565.306,423.028c-0.563,1.196,0.177,2.506,2.273,3.477
				c1.676,0.771,2.066,0.03,2.556-0.574C571.941,423.68,566.997,419.44,565.306,423.028z"/>
		</g>
	</g>
	<g>
		<g>
			<defs>
				<path id="SVGID_104_" d="M574.897,439.344H405.269c-18.356,0-28.182-2.872-28.182-9.386c0-6.517,9.462-36.066,37.645-36.066
					h160.166c22.148,0,40.907,17.878,40.907,22.726C615.805,421.464,597.503,439.344,574.897,439.344z"/>
			</defs>
			<clipPath id="SVGID_105_">
				<use xlink:href="#SVGID_104_"  overflow="visible"/>
			</clipPath>
			<path clip-path="url(#SVGID_105_)" fill="#38909E" d="M555.388,420.544c-0.563,1.193,0.178,2.505,2.273,3.471
				c1.677,0.771,2.066,0.035,2.557-0.57C562.023,421.193,557.079,416.954,555.388,420.544z"/>
		</g>
	</g>
	<g>
		<g>
			<defs>
				<path id="SVGID_106_" d="M574.897,439.344H405.269c-18.356,0-28.182-2.872-28.182-9.386c0-6.517,9.462-36.066,37.645-36.066
					h160.166c22.148,0,40.907,17.878,40.907,22.726C615.805,421.464,597.503,439.344,574.897,439.344z"/>
			</defs>
			<clipPath id="SVGID_107_">
				<use xlink:href="#SVGID_106_"  overflow="visible"/>
			</clipPath>
			<path clip-path="url(#SVGID_107_)" fill="#38909E" d="M524.198,438.073c-0.562,1.196,0.178,2.502,2.275,3.474
				c1.674,0.771,2.063,0.03,2.554-0.574C530.835,438.725,525.89,434.485,524.198,438.073z"/>
		</g>
	</g>
	<g>
		<g>
			<defs>
				<path id="SVGID_108_" d="M574.897,439.344H405.269c-18.356,0-28.182-2.872-28.182-9.386c0-6.517,9.462-36.066,37.645-36.066
					h160.166c22.148,0,40.907,17.878,40.907,22.726C615.805,421.464,597.503,439.344,574.897,439.344z"/>
			</defs>
			<clipPath id="SVGID_109_">
				<use xlink:href="#SVGID_108_"  overflow="visible"/>
			</clipPath>
			<path clip-path="url(#SVGID_109_)" fill="#38909E" d="M541.15,418.896c-0.562,1.196,0.177,2.506,2.274,3.475
				c1.675,0.771,2.064,0.033,2.555-0.572C547.785,419.549,542.843,415.308,541.15,418.896z"/>
		</g>
	</g>
	<g>
		<g>
			<defs>
				<path id="SVGID_110_" d="M574.897,439.344H405.269c-18.356,0-28.182-2.872-28.182-9.386c0-6.517,9.462-36.066,37.645-36.066
					h160.166c22.148,0,40.907,17.878,40.907,22.726C615.805,421.464,597.503,439.344,574.897,439.344z"/>
			</defs>
			<clipPath id="SVGID_111_">
				<use xlink:href="#SVGID_110_"  overflow="visible"/>
			</clipPath>
			<path clip-path="url(#SVGID_111_)" fill="#38909E" d="M517.601,402.594c-0.563,1.194,0.178,2.502,2.275,3.472
				c1.675,0.771,2.064,0.031,2.555-0.574C524.236,403.244,519.294,399.005,517.601,402.594z"/>
		</g>
	</g>
	<g>
		<g>
			<defs>
				<path id="SVGID_112_" d="M574.897,439.344H405.269c-18.356,0-28.182-2.872-28.182-9.386c0-6.517,9.462-36.066,37.645-36.066
					h160.166c22.148,0,40.907,17.878,40.907,22.726C615.805,421.464,597.503,439.344,574.897,439.344z"/>
			</defs>
			<clipPath id="SVGID_113_">
				<use xlink:href="#SVGID_112_"  overflow="visible"/>
			</clipPath>
			<path clip-path="url(#SVGID_113_)" fill="#38909E" d="M604.656,414.371c-0.562,1.195,0.18,2.501,2.275,3.473
				c1.675,0.771,2.064,0.031,2.555-0.573C611.291,415.023,606.349,410.781,604.656,414.371z"/>
		</g>
	</g>
	<g>
		<g>
			<defs>
				<path id="SVGID_114_" d="M574.897,439.344H405.269c-18.356,0-28.182-2.872-28.182-9.386c0-6.517,9.462-36.066,37.645-36.066
					h160.166c22.148,0,40.907,17.878,40.907,22.726C615.805,421.464,597.503,439.344,574.897,439.344z"/>
			</defs>
			<clipPath id="SVGID_115_">
				<use xlink:href="#SVGID_114_"  overflow="visible"/>
			</clipPath>
			<path clip-path="url(#SVGID_115_)" fill="#38909E" d="M533.922,404.765c-0.563,1.196,0.177,2.503,2.273,3.472
				c1.675,0.771,2.066,0.033,2.555-0.574C540.558,405.418,535.613,401.177,533.922,404.765z"/>
		</g>
	</g>
	<g>
		<g>
			<defs>
				<path id="SVGID_116_" d="M574.897,439.344H405.269c-18.356,0-28.182-2.872-28.182-9.386c0-6.517,9.462-36.066,37.645-36.066
					h160.166c22.148,0,40.907,17.878,40.907,22.726C615.805,421.464,597.503,439.344,574.897,439.344z"/>
			</defs>
			<clipPath id="SVGID_117_">
				<use xlink:href="#SVGID_116_"  overflow="visible"/>
			</clipPath>
			<path clip-path="url(#SVGID_117_)" fill="#38909E" d="M578.378,411.775c-0.563,1.196,0.177,2.503,2.273,3.472
				c1.674,0.771,2.066,0.032,2.554-0.572C585.014,412.427,580.069,408.187,578.378,411.775z"/>
		</g>
	</g>
	<g>
		<g>
			<defs>
				<path id="SVGID_118_" d="M574.897,439.344H405.269c-18.356,0-28.182-2.872-28.182-9.386c0-6.517,9.462-36.066,37.645-36.066
					h160.166c22.148,0,40.907,17.878,40.907,22.726C615.805,421.464,597.503,439.344,574.897,439.344z"/>
			</defs>
			<clipPath id="SVGID_119_">
				<use xlink:href="#SVGID_118_"  overflow="visible"/>
			</clipPath>
			<path clip-path="url(#SVGID_119_)" fill="#38909E" d="M604.656,425.624c-0.562,1.195,0.18,2.507,2.275,3.476
				c1.675,0.771,2.064,0.032,2.555-0.573C611.291,426.275,606.349,422.036,604.656,425.624z"/>
		</g>
	</g>
	<g>
		<g>
			<defs>
				<path id="SVGID_120_" d="M574.897,439.344H405.269c-18.356,0-28.182-2.872-28.182-9.386c0-6.517,9.462-36.066,37.645-36.066
					h160.166c22.148,0,40.907,17.878,40.907,22.726C615.805,421.464,597.503,439.344,574.897,439.344z"/>
			</defs>
			<clipPath id="SVGID_121_">
				<use xlink:href="#SVGID_120_"  overflow="visible"/>
			</clipPath>
			<path clip-path="url(#SVGID_121_)" fill="#38909E" d="M567.448,393.967c-0.562,1.194,0.178,2.506,2.275,3.473
				c1.674,0.771,2.064,0.034,2.554-0.571C574.086,394.616,569.141,390.379,567.448,393.967z"/>
		</g>
	</g>
</g>
<g>
	<circle fill="#FFFFFF" cx="405.233" cy="416.342" r="13.615"/>
	<circle fill="#00A79D" cx="403.786" cy="415.408" r="7.715"/>
	<circle fill="#231F20" cx="403.498" cy="415.26" r="4.33"/>
</g>
<path fill="#A03838" d="M449.556,428.826c0,0,5.886,17.793,6.724,19.656c0.312,0.69,1.234,1.838,1.922,2.119
	c4.204,1.729,14.88-5.208,12.179-7.613c-1.656-1.475-19.387-14.689-19.387-14.689S449.152,426.898,449.556,428.826z"/>
<path fill="#A03838" d="M416.412,395.177c0,0,7.404-13.415,17.975-13.415c7.037,0,63.853,0,75.67,0
	c7.134,0,15.15,13.415,15.15,13.415H416.412z"/>
<path fill="#BDE515" d="M608.976,84.115c9.14-4.86,20.588-24.149,19.121-28.023c-18.872-3.542-37.979,1.964-54.583,21.05
	c-1.21,1.392-3.585,5.063-3.595,6.906c-0.003,0.021-0.008,0.044-0.008,0.068c0,0.025,0.005,0.048,0.008,0.069
	c0.01,1.842,2.385,5.517,3.595,6.91c16.604,19.085,35.711,24.587,54.583,21.045C629.563,108.265,618.115,88.977,608.976,84.115z">
<animate  fill="remove" dur="0.6s" accumulate="none" attributeName="d" values="       M608.976,84.115c9.14-4.86,20.588-24.149,19.121-28.023c-18.872-3.542-37.978,1.963-54.583,21.049    c-1.21,1.392-3.585,5.064-3.595,6.907c-0.003,0.021-0.007,0.044-0.007,0.068c0,0.025,0.005,0.048,0.007,0.069    c0.01,1.842,2.385,5.517,3.595,6.91c16.605,19.085,35.711,24.587,54.583,21.045C629.563,108.265,618.115,88.977,608.976,84.115z;     M599.794,84.115c6.737-4.003,10.576-24.149,9.11-28.023c-17.5-4.62-30.701,10.151-36.577,21.049    c-0.875,1.624-2.397,5.064-2.407,6.907c-0.003,0.021-0.007,0.044-0.007,0.068c0,0.025,0.005,0.048,0.007,0.069    c0.01,1.842,2.385,5.517,3.595,6.91c16.605,19.085,35.711,24.587,54.583,21.045C629.563,108.265,608.933,88.977,599.794,84.115z;     M596.092,84.115c6.125-4.86,13.796-24.149,12.812-28.023c-12.647-3.542-25.448,1.963-36.577,21.049    c-0.812,1.392-2.402,5.064-2.41,6.907c-0.003,0.021-0.004,0.044-0.004,0.068c0,0.025,0.001,0.048,0.004,0.069    c0.008,1.842,1.6,5.517,2.41,6.91c11.129,19.085,23.93,24.587,36.577,21.045C609.887,108.265,602.217,88.977,596.092,84.115z;     M599.794,84.115c6.737-4.003,10.576-24.149,9.11-28.023c-17.5-4.62-30.701,10.151-36.577,21.049    c-0.875,1.624-2.397,5.064-2.407,6.907c-0.003,0.021-0.007,0.044-0.007,0.068c0,0.025,0.005,0.048,0.007,0.069    c0.01,1.842,2.385,5.517,3.595,6.91c16.605,19.085,35.711,24.587,54.583,21.045C629.563,108.265,608.933,88.977,599.794,84.115z;     M608.976,84.115c9.14-4.86,20.588-24.149,19.121-28.023c-18.872-3.542-37.978,1.963-54.583,21.049    c-1.21,1.392-3.585,5.064-3.595,6.907c-0.003,0.021-0.007,0.044-0.007,0.068c0,0.025,0.005,0.048,0.007,0.069    c0.01,1.842,2.385,5.517,3.595,6.91c16.605,19.085,35.711,24.587,54.583,21.045C629.563,108.265,618.115,88.977,608.976,84.115z;" restart="always" calcMode="linear" additive="replace" repeatCount="indefinite">
		</animate>
</path>
<g>
	<g>
		<path id="XMLID_18_" fill="#235591" d="M605.326,7.287c-22.297-2.714-61.468-1.149-91.898,0.656
			c-37.865,2.249-81.292,47.66-92.158,74.17c-0.36,0.808-1.565,4.263-1.565,4.263s-0.382,1.604-2.406,2.124
			c-2.454,0.631-3.013,4.882,0.843,4.967c-1.149,0.836-3.061,2.015-1.669,4.345c0.833,1.396,3.093,0.771,4.379,1.787
			c4.065,8.848,13.595,20.183,24.51,29.929c19.161,17.106,54.963,24.278,78.915,24.858c34.092,0.824,47.523-33.098,51.257-56.689
			c0,0,6.124-9.871,6.124-13.582c0-3.399-6.788-12.95-6.788-12.95c-4.229-17.505-15.775-42.206-34.824-54.93
			c0,0-1.924-9.564,63.179-6.783C611.619,9.807,606.111,7.384,605.326,7.287z"/>
	</g>
	<g>
		<g>
			<defs>
				<path id="SVGID_122_" d="M605.326,7.287c-22.297-2.714-61.468-1.149-91.898,0.656c-37.865,2.249-81.292,47.66-92.158,74.17
					c-0.36,0.808-1.565,4.263-1.565,4.263s-0.382,1.604-2.406,2.124c-2.454,0.631-3.013,4.882,0.843,4.967
					c-1.149,0.836-3.061,2.015-1.669,4.345c0.833,1.396,3.093,0.771,4.379,1.787c4.065,8.848,13.595,20.183,24.51,29.929
					c19.161,17.106,54.963,24.278,78.915,24.858c34.092,0.824,47.523-33.098,51.257-56.689c0,0,6.124-9.871,6.124-13.582
					c0-3.399-6.788-12.95-6.788-12.95c-4.229-17.505-15.775-42.206-34.824-54.93c0,0-1.924-9.564,63.179-6.783
					C611.619,9.807,606.111,7.384,605.326,7.287z"/>
			</defs>
			<clipPath id="SVGID_123_">
				<use xlink:href="#SVGID_122_"  overflow="visible"/>
			</clipPath>
			<path clip-path="url(#SVGID_123_)" fill="#194A7C" d="M424.273,105.732c0,0,19.242,28.968,66.406,23.899
				c37.944-4.074,87.044-44.501,88.691-8.6c-3.712,16.484-31.764,49.854-31.764,49.854l-93.183-14.438L424.273,105.732z"/>
		</g>
	</g>
</g>
<g>
	<circle fill="#FFFFFF" cx="442.829" cy="89.386" r="13.256"/>
	<circle fill="#00A79D" cx="441.422" cy="88.477" r="6.838"/>
	<circle fill="#231F20" cx="441.141" cy="88.332" r="4.217"/>
</g>
<path fill="#BDE515" d="M468.985,136.952c0,0,7.152,29.112,8.254,32.189c0.408,1.137,1.741,3.084,2.799,3.623
	c6.487,3.283,24.386-6.438,20.374-10.619c-2.456-2.561-29.066-25.854-29.066-25.854S468.586,133.826,468.985,136.952z"/>
<path fill="#123960" d="M463.438,63.628c0,0,14.336,19.013,1.96,49.521C471.586,101.994,481.692,83.43,463.438,63.628z"/>
<path fill="#123960" d="M479.462,51.471c0,0,21.341,28.303,2.916,73.721C491.591,108.584,506.636,80.948,479.462,51.471z"/>
<path fill="#123960" d="M497.276,34.521c0,0,29.303,38.86,4.004,101.223C513.93,112.94,534.589,74.996,497.276,34.521z"/>
<path fill="#51296B" d="M817.979,324.559c-9.942,0-19.42-1.206-19.42-12.541c0-6.528,0-72.965,0-79.494
	c0-11.334,9.478-12.54,19.42-12.54c0.748,0,0.734-1.411,0.004-1.411c-4.14,0-35.216,0-42.182,0
	c-31.274,0-26.184,47.957-44.83,47.957c-3.604,0-6.112,3.846-5.649,5.742c-0.463,1.896,2.046,5.741,5.649,5.741
	c20.688,0,3.059,47.956,44.83,47.956c6.966,0,38.042,0,42.182,0C818.715,325.969,818.728,324.559,817.979,324.559z">
<animate  fill="remove" dur="0.6s" accumulate="none" attributeName="d" values="        M817.979,324.559c-9.942,0-19.42-1.206-19.42-12.541c0-6.528,0-72.965,0-79.494    c0-11.334,9.478-12.54,19.42-12.54c0.748,0,0.734-1.411,0.004-1.411c-4.14,0-35.216,0-42.182,0    c-31.274,0-26.183,47.957-44.83,47.957c-3.604,0-6.112,3.846-5.649,5.742c-0.463,1.896,2.046,5.741,5.649,5.741    c20.688,0,3.059,47.956,44.83,47.956c6.966,0,38.042,0,42.182,0C818.715,325.969,818.728,324.559,817.979,324.559z;     M799.947,324.559c-8.01,0-15.645-1.206-15.645-12.541c0-6.528,0-72.965,0-79.494    c0-11.334,7.635-12.54,15.645-12.54c0.602,0,0.59-1.411,0.004-1.411c-3.337,0-28.368,0-33.977,0    c-25.194,0-21.09,47.957-36.113,47.957c-2.901,0-4.922,3.846-4.548,5.742c-0.374,1.896,1.646,5.741,4.548,5.741    c16.664,0,2.465,47.956,36.113,47.956c5.606,0,30.64,0,33.977,0C800.537,325.969,800.549,324.559,799.947,324.559z;     M817.979,324.559c-9.942,0-19.42-1.206-19.42-12.541c0-6.528,0-72.965,0-79.494    c0-11.334,9.478-12.54,19.42-12.54c0.748,0,0.734-1.411,0.004-1.411c-4.14,0-35.216,0-42.182,0    c-31.274,0-26.183,47.957-44.83,47.957c-3.604,0-6.112,3.846-5.649,5.742c-0.463,1.896,2.046,5.741,5.649,5.741    c20.688,0,3.059,47.956,44.83,47.956c6.966,0,38.042,0,42.182,0C818.715,325.969,818.728,324.559,817.979,324.559z;" restart="always" calcMode="linear" additive="replace" repeatCount="indefinite">
		</animate>
</path>
<g>
	<g>
		<path id="XMLID_12_" fill="#51296B" d="M731.25,243.838c1.308,29.299-0.437,70.771,25.314,99.683
			c4.129,4.637,1.249,6.032-2.262,3.612c-43.258-29.814-109.979,16.199-137.469-83.903c-2.133-7.764-9.024-4.444-9.014-7.271
			c0.014-2.582,6.031-0.691,8.109-3.792c3.531-5.271,10.354-42.651,44.782-65.824c29.23-19.676,93.288-1.687,128.824-37.593
			c3.41-3.444,7.92-2.555,5.421,1.875c-2.946,5.22-50.145,40.416-58.272,67.821c31.319-44.271,91.501-63.687,95.112-62.807
			c3.714,0.903,3.933,4.274-0.502,3.916c-11.146-0.904-74.732,28.174-98.227,74.693L731.25,243.838z"/>
	</g>
	<g>
		<g>
			<defs>
				<path id="SVGID_124_" d="M731.25,243.838c1.308,29.299-0.437,70.771,25.314,99.683c4.129,4.637,1.249,6.032-2.262,3.612
					c-43.258-29.814-109.979,16.199-137.469-83.903c-2.133-7.764-9.024-4.444-9.014-7.271c0.014-2.582,6.031-0.691,8.109-3.792
					c3.531-5.271,10.354-42.651,44.782-65.824c29.23-19.676,93.288-1.687,128.824-37.593c3.41-3.444,7.92-2.555,5.421,1.875
					c-2.946,5.22-50.145,40.416-58.272,67.821c31.319-44.271,91.501-63.687,95.112-62.807c3.714,0.903,3.933,4.274-0.502,3.916
					c-11.146-0.904-74.732,28.174-98.227,74.693L731.25,243.838z"/>
			</defs>
			<clipPath id="SVGID_125_">
				<use xlink:href="#SVGID_124_"  overflow="visible"/>
			</clipPath>
			<path clip-path="url(#SVGID_125_)" fill="#462660" d="M615.784,297.588c0,0,21.44,9.194,28.312,10.846
				c6.875,1.647,36.836,9.62,54.427,2.475c17.595-7.146,26.498-27.098,35.239-23.78c8.742,3.315,9.841,42.472,28.257,50.17
				c18.419,7.693,0,18.69,0,18.69l-127.086-34.616L615.784,297.588z"/>
		</g>
	</g>
	<g>
		<g>
			<defs>
				<path id="SVGID_126_" d="M731.25,243.838c1.308,29.299-0.437,70.771,25.314,99.683c4.129,4.637,1.249,6.032-2.262,3.612
					c-43.258-29.814-109.979,16.199-137.469-83.903c-2.133-7.764-9.024-4.444-9.014-7.271c0.014-2.582,6.031-0.691,8.109-3.792
					c3.531-5.271,10.354-42.651,44.782-65.824c29.23-19.676,93.288-1.687,128.824-37.593c3.41-3.444,7.92-2.555,5.421,1.875
					c-2.946,5.22-50.145,40.416-58.272,67.821c31.319-44.271,91.501-63.687,95.112-62.807c3.714,0.903,3.933,4.274-0.502,3.916
					c-11.146-0.904-74.732,28.174-98.227,74.693L731.25,243.838z"/>
			</defs>
			<clipPath id="SVGID_127_">
				<use xlink:href="#SVGID_126_"  overflow="visible"/>
			</clipPath>
			<path clip-path="url(#SVGID_127_)" fill="#3B1C54" d="M713.619,154.531c0,0-15.447,53.5-12.963,83.798
				c-0.247,8.019,4.536,11.02,5.549,2.441c4.385-37.164,40.035-52.701,41.896-76.923
				C749.968,139.626,713.619,154.531,713.619,154.531z"/>
		</g>
	</g>
	<g>
		<g>
			<defs>
				<path id="SVGID_128_" d="M731.25,243.838c1.308,29.299-0.437,70.771,25.314,99.683c4.129,4.637,1.249,6.032-2.262,3.612
					c-43.258-29.814-109.979,16.199-137.469-83.903c-2.133-7.764-9.024-4.444-9.014-7.271c0.014-2.582,6.031-0.691,8.109-3.792
					c3.531-5.271,10.354-42.651,44.782-65.824c29.23-19.676,93.288-1.687,128.824-37.593c3.41-3.444,7.92-2.555,5.421,1.875
					c-2.946,5.22-50.145,40.416-58.272,67.821c31.319-44.271,91.501-63.687,95.112-62.807c3.714,0.903,3.933,4.274-0.502,3.916
					c-11.146-0.904-74.732,28.174-98.227,74.693L731.25,243.838z"/>
			</defs>
			<clipPath id="SVGID_129_">
				<use xlink:href="#SVGID_128_"  overflow="visible"/>
			</clipPath>
			<path clip-path="url(#SVGID_129_)" fill="#3B1C54" d="M683.656,175.457c-0.003,0.021-1.753,29.514,1.886,45.513
				c0.591,4.287,2.816,5.566,2.495,0.931c-2.446-35.18,11.867-31.689,10.642-43.781
				C697.356,165.088,683.656,175.457,683.656,175.457z"/>
		</g>
	</g>
	<g>
		<g>
			<defs>
				<path id="SVGID_130_" d="M731.25,243.838c1.308,29.299-0.437,70.771,25.314,99.683c4.129,4.637,1.249,6.032-2.262,3.612
					c-43.258-29.814-109.979,16.199-137.469-83.903c-2.133-7.764-9.024-4.444-9.014-7.271c0.014-2.582,6.031-0.691,8.109-3.792
					c3.531-5.271,10.354-42.651,44.782-65.824c29.23-19.676,93.288-1.687,128.824-37.593c3.41-3.444,7.92-2.555,5.421,1.875
					c-2.946,5.22-50.145,40.416-58.272,67.821c31.319-44.271,91.501-63.687,95.112-62.807c3.714,0.903,3.933,4.274-0.502,3.916
					c-11.146-0.904-74.732,28.174-98.227,74.693L731.25,243.838z"/>
			</defs>
			<clipPath id="SVGID_131_">
				<use xlink:href="#SVGID_130_"  overflow="visible"/>
			</clipPath>
			<path clip-path="url(#SVGID_131_)" fill="#3B1C54" d="M749.518,347.104c-19.985-37.521-36.864-24.791-41.177-66.796
				c-1.237-8.438-4.439-4.808-4.498-0.247c-0.171,13.913,7.935,62.566,34.39,74.065C748.13,351.238,769.496,384.623,749.518,347.104
				z"/>
		</g>
	</g>
	<g>
		<g>
			<defs>
				<path id="SVGID_132_" d="M731.25,243.838c1.308,29.299-0.437,70.771,25.314,99.683c4.129,4.637,1.249,6.032-2.262,3.612
					c-43.258-29.814-109.979,16.199-137.469-83.903c-2.133-7.764-9.024-4.444-9.014-7.271c0.014-2.582,6.031-0.691,8.109-3.792
					c3.531-5.271,10.354-42.651,44.782-65.824c29.23-19.676,93.288-1.687,128.824-37.593c3.41-3.444,7.92-2.555,5.421,1.875
					c-2.946,5.22-50.145,40.416-58.272,67.821c31.319-44.271,91.501-63.687,95.112-62.807c3.714,0.903,3.933,4.274-0.502,3.916
					c-11.146-0.904-74.732,28.174-98.227,74.693L731.25,243.838z"/>
			</defs>
			<clipPath id="SVGID_133_">
				<use xlink:href="#SVGID_132_"  overflow="visible"/>
			</clipPath>
			<path clip-path="url(#SVGID_133_)" fill="#3B1C54" d="M705.075,341.771c0,0-16.118-13.788-17.506-34.357
				c0.216-2.905-3.128-6.397-3.263,0.637c-0.19,9.894,2.844,23.774,7.515,31.726C696.489,347.725,705.075,341.771,705.075,341.771z"
				/>
		</g>
	</g>
	<g>
		<g>
			<defs>
				<path id="SVGID_134_" d="M731.25,243.838c1.308,29.299-0.437,70.771,25.314,99.683c4.129,4.637,1.249,6.032-2.262,3.612
					c-43.258-29.814-109.979,16.199-137.469-83.903c-2.133-7.764-9.024-4.444-9.014-7.271c0.014-2.582,6.031-0.691,8.109-3.792
					c3.531-5.271,10.354-42.651,44.782-65.824c29.23-19.676,93.288-1.687,128.824-37.593c3.41-3.444,7.92-2.555,5.421,1.875
					c-2.946,5.22-50.145,40.416-58.272,67.821c31.319-44.271,91.501-63.687,95.112-62.807c3.714,0.903,3.933,4.274-0.502,3.916
					c-11.146-0.904-74.732,28.174-98.227,74.693L731.25,243.838z"/>
			</defs>
			<clipPath id="SVGID_135_">
				<use xlink:href="#SVGID_134_"  overflow="visible"/>
			</clipPath>
			<path clip-path="url(#SVGID_135_)" fill="#3B1C54" d="M672.509,333.935c0,0-10.057-9.846-10.057-23.521
				c0.274-1.916-1.78-4.378-2.187,0.273c-0.568,6.539,0.818,15.863,3.554,21.333C666.559,337.49,672.509,333.935,672.509,333.935z"
				/>
		</g>
	</g>
</g>
<g>
	<path fill="#FFFFFF" d="M662.026,238.411c0,5.985-4.854,10.841-10.843,10.841c-5.984,0-10.841-4.854-10.841-10.841
		c0-5.988,4.854-10.842,10.841-10.842C657.173,227.57,662.026,232.423,662.026,238.411z"/>
	<circle fill="#00A79D" cx="650.032" cy="237.667" r="5.708"/>
	<circle fill="#231F20" cx="649.805" cy="237.547" r="3.449"/>
</g>
<path fill="#A872C1" d="M658.031,289.729c0,0,12.052,14.204,13.519,15.607c0.542,0.521,1.822,1.233,2.561,1.238
	c4.519,0.026,11.771-10.343,8.385-11.555c-2.071-0.739-23.335-6.312-23.335-6.312S656.942,288.103,658.031,289.729z"/>
<path fill="#EA6C90" d="M213.607,92.288c11.733-5.527,14.99-30.682,14.99-36.488c0-10.066,6.548-10.37,3.197-11.496
	c-37.461,0-33.045,36.912-58.478,43.003c-2.94,0.705-5.132,3.433-5.082,4.981c-0.051,1.55,2.141,4.276,5.082,4.98
	c25.433,6.091,14.925,43.003,58.478,43.003c3.352-1.127-3.197-1.431-3.197-11.499C228.597,122.969,225.341,97.815,213.607,92.288z">
<animate  fill="remove" dur="0.6s" accumulate="none" attributeName="d" values="        M213.607,92.288c11.733-5.528,14.99-30.682,14.99-36.488c0-10.067,6.548-10.371,3.197-11.497    c-37.461,0-33.045,36.913-58.477,43.003c-2.941,0.705-5.132,3.433-5.082,4.982c-0.051,1.55,2.14,4.276,5.082,4.98    c25.432,6.091,14.924,43.003,58.477,43.003c3.352-1.127-3.197-1.43-3.197-11.499C228.597,122.969,225.341,97.815,213.607,92.288z;     M206.437,92.288c11.733-5.528,10.216-30.682,10.216-36.488c0-10.067,6.547-10.371,3.197-11.497    c-37.461,0-21.103,36.913-46.533,43.003c-2.941,0.705-5.132,3.433-5.082,4.982c-0.051,1.55,2.14,4.276,5.082,4.98    c25.432,6.091,14.924,43.003,58.477,43.003c3.352-1.127-3.197-1.43-3.197-11.499C228.597,122.969,218.171,97.815,206.437,92.288z;     M204.186,92.288c9.297-5.528,11.878-30.682,11.878-36.488c0-10.067,5.188-10.371,2.534-11.497    c-29.684,0-26.185,36.913-46.336,43.003c-2.331,0.705-4.067,3.433-4.026,4.982c-0.041,1.55,1.695,4.276,4.026,4.98    c20.151,6.091,11.826,43.003,46.336,43.003c2.654-1.127-2.534-1.43-2.534-11.499C216.064,122.969,213.483,97.815,204.186,92.288z;     M206.437,92.288c11.733-5.528,10.216-30.682,10.216-36.488c0-10.067,6.547-10.371,3.197-11.497    c-37.461,0-21.103,36.913-46.533,43.003c-2.941,0.705-5.132,3.433-5.082,4.982c-0.051,1.55,2.14,4.276,5.082,4.98    c25.432,6.091,14.924,43.003,58.477,43.003c3.352-1.127-3.197-1.43-3.197-11.499C228.597,122.969,218.171,97.815,206.437,92.288z;     M213.607,92.288c11.733-5.528,14.99-30.682,14.99-36.488c0-10.067,6.548-10.371,3.197-11.497    c-37.461,0-33.045,36.913-58.477,43.003c-2.941,0.705-5.132,3.433-5.082,4.982c-0.051,1.55,2.14,4.276,5.082,4.98    c25.432,6.091,14.924,43.003,58.477,43.003c3.352-1.127-3.197-1.43-3.197-11.499C228.597,122.969,225.341,97.815,213.607,92.288z;" restart="always" calcMode="linear" additive="replace" repeatCount="indefinite">
		</animate>
</path>
<g>
	<g>
		<path id="XMLID_19_" fill="#43EFB6" d="M86.327,29.321c-33.721,0-61.591,23.143-66.157,53.217
			c-0.294,1.624-0.454,3.41-0.671,4.062c-1.204,3.646-5.698,2.959-6.458,5.699c-1.003,3.609,3.807,5.18,5.641,5.869
			c-5.106,1.519-4.645,6.467-1.147,6.237c3.502-0.23,4.239,2.899,4.239,2.899l0.007-0.017c7.632,26.414,33.632,45.87,64.549,45.87
			c60.95,0,98.789-47.988,98.789-61.921C185.116,82.33,148.648,29.321,86.327,29.321z"/>
	</g>
	<g>
		<g>
			<defs>
				<path id="SVGID_136_" d="M86.327,29.321c-33.721,0-61.591,23.143-66.157,53.217c-0.294,1.624-0.454,3.41-0.671,4.062
					c-1.204,3.646-5.698,2.959-6.458,5.699c-1.003,3.609,3.807,5.18,5.641,5.869c-5.106,1.519-4.645,6.467-1.147,6.237
					c3.502-0.23,4.239,2.899,4.239,2.899l0.007-0.017c7.632,26.414,33.632,45.87,64.549,45.87c60.95,0,98.789-47.988,98.789-61.921
					C185.116,82.33,148.648,29.321,86.327,29.321z"/>
			</defs>
			<clipPath id="SVGID_137_">
				<use xlink:href="#SVGID_136_"  overflow="visible"/>
			</clipPath>
			<path clip-path="url(#SVGID_137_)" fill="#38D69D" d="M21.189,106.075c0,0,16.298,30.531,67.104,29.697
				c50.807-0.833,93.362-24.519,96.824-42.253c0,10.896-2.099,27.521-2.099,27.521l-74.222,38.083l-49.019,6.394L27.626,134.94
				L21.189,106.075z"/>
		</g>
	</g>
</g>
<path fill="#EA6C90" d="M59.78,35.817c0,0,13.797-25.875,33.441-24.961c19.646,0.914,38.596,29.445,38.596,29.445
	s-17.087-6.138-38.984-7.312C75.777,32.077,59.78,35.817,59.78,35.817z"/>
<g>
	<circle fill="#FFFFFF" cx="49.619" cy="72.038" r="13.399"/>
	<circle fill="#00A79D" cx="48.196" cy="71.119" r="5.782"/>
	<circle fill="#231F20" cx="47.914" cy="70.973" r="4.261"/>
</g>
<path fill="#EA6C90" d="M72.138,139.501c0,0,7.229,29.427,8.343,32.537c0.412,1.149,1.758,3.117,2.829,3.662
	c6.557,3.319,24.646-6.509,20.593-10.733c-2.482-2.584-29.382-26.132-29.382-26.132S71.732,136.341,72.138,139.501z"/>
<path fill="#15AF74" d="M60.5,48.327c-3.296,0.89-2.942,3.438,0.831,2.383c6.03-1.689,51.916-13.064,100.004,18.132
	C121.248,41.259,84.615,41.814,60.5,48.327z"/>
<path fill="#15AF74" d="M70.317,55.206c-2.4,0.417-2.209,3.163,1.787,2.197c13.679-3.307,55.371-2.012,95.349,19.498
	C167.452,76.901,120.512,46.482,70.317,55.206z"/>
<path fill="#15AF74" d="M75.226,64.129c-1.86,0.236-2.918,2.539,0.209,2.254c24.751-2.254,53.794-1.356,88.891,13.237
	C148.271,71.992,110.46,59.647,75.226,64.129z"/>
<path fill="#15AF74" d="M169.794,85.438c0,0-54.428-18.256-94.86-12.542c-1.876,0.208-2.084,2.068,0,2.077
	C77.019,74.981,110.845,69.492,169.794,85.438z"/>
<path fill="#15AF74" d="M169.794,91.604c0,0-51.973-14.097-98.01-7.099c-1.667,0-1.563,2.121,0.312,1.84
	C73.973,86.063,119.758,80.284,169.794,91.604z"/>
<path fill="#560F70" d="M455.891,263.067c0.004-0.185,0.01-0.368,0.01-0.551c0,0-0.011,0-0.018-0.004
	c-0.354-13.751-7.174-27.153-10.433-27.153c-25.419,2.113-35.809,13.283-42.458,20.739c-0.801,0.899-2.114,3.18-2.854,5.2
	c-0.508,0.229-0.617,0.896-0.483,1.769c-0.134,0.872-0.023,1.54,0.483,1.771c0.736,2.021,2.052,4.304,2.854,5.2
	c6.649,7.46,17.039,18.626,42.458,20.738c3.259,0,10.076-13.401,10.433-27.152c0.007,0,0.018,0,0.018,0
	C455.9,263.437,455.895,263.252,455.891,263.067z">
<animate  fill="remove" dur="0.6s" accumulate="none" attributeName="d" values="        M455.891,263.067c0.004-0.184,0.01-0.368,0.01-0.551c0,0-0.011,0-0.018-0.004    c-0.354-13.751-7.174-27.153-10.432-27.153c-25.419,2.113-35.809,13.283-42.458,20.739c-0.801,0.9-2.115,3.18-2.854,5.201    c-0.508,0.229-0.617,0.896-0.483,1.768c-0.134,0.872-0.024,1.54,0.483,1.771c0.737,2.021,2.052,4.303,2.854,5.2    c6.649,7.46,17.039,18.626,42.458,20.738c3.258,0,10.076-13.401,10.432-27.152c0.007,0,0.018,0,0.018,0    C455.9,263.437,455.895,263.252,455.891,263.067z;        M435.193,263.067c0.002-0.184,0.007-0.368,0.007-0.551c0,0-0.007,0-0.012-0.004    c-0.225-13.751-4.535-27.153-6.595-27.153c-16.072,2.113-22.642,13.283-26.847,20.739c-0.506,0.9-1.337,3.18-1.804,5.201    c-0.321,0.229-0.391,0.896-0.306,1.768c-0.085,0.872-0.017,1.54,0.306,1.771c0.466,2.021,1.297,4.303,1.804,5.2    c4.205,7.46,10.773,18.626,26.847,20.738c2.06,0,6.37-13.401,6.595-27.152c0.005,0,0.012,0,0.012,0    C435.2,263.437,435.195,263.252,435.193,263.067z;     M455.891,263.067c0.004-0.184,0.01-0.368,0.01-0.551c0,0-0.011,0-0.018-0.004    c-0.354-13.751-7.174-27.153-10.432-27.153c-25.419,2.113-35.809,13.283-42.458,20.739c-0.801,0.9-2.115,3.18-2.854,5.201    c-0.508,0.229-0.617,0.896-0.483,1.768c-0.134,0.872-0.024,1.54,0.483,1.771c0.737,2.021,2.052,4.303,2.854,5.2    c6.649,7.46,17.039,18.626,42.458,20.738c3.258,0,10.076-13.401,10.432-27.152c0.007,0,0.018,0,0.018,0    C455.9,263.437,455.895,263.252,455.891,263.067z;" restart="always" calcMode="linear" additive="replace" repeatCount="indefinite">
		</animate>
</path>
<g>
	<g>
		<path id="XMLID_8_" fill="#E0178F" d="M273.548,224.316c-0.103-0.02-0.204-0.039-0.305-0.039c-0.489,0-0.957,0.014-1.438,0.017
			c-0.913-0.009-1.827-0.017-2.743-0.017c-4.961,0-9.45,0.445-13.501,1.257c-24.85,3.772-36.021,15.318-43.625,23.847
			c-2.172,2.436-6.924,9.281-3.32,10.417c1.292,0.409,6.343,2.249,13.371,3.139c-5.772,0.612-10.292,1.738-13.371,2.295
			c-3.719,0.671,1.148,7.982,3.32,10.42c9.209,10.329,23.035,26.009,61.307,26.009c60.869,0,141.9-31.145,141.9-38.146
			C415.145,257.062,350.143,225.517,273.548,224.316z"/>
	</g>
	<g>
		<g>
			<defs>
				<path id="SVGID_138_" d="M273.548,224.316c-0.103-0.02-0.204-0.039-0.305-0.039c-0.489,0-0.957,0.014-1.438,0.017
					c-0.913-0.009-1.827-0.017-2.743-0.017c-4.961,0-9.45,0.445-13.501,1.257c-24.85,3.772-36.021,15.318-43.625,23.847
					c-2.172,2.436-6.924,9.281-3.32,10.417c1.292,0.409,6.343,2.249,13.371,3.139c-5.772,0.612-10.292,1.738-13.371,2.295
					c-3.719,0.671,1.148,7.982,3.32,10.42c9.209,10.329,23.035,26.009,61.307,26.009c60.869,0,141.9-31.145,141.9-38.146
					C415.145,257.062,350.143,225.517,273.548,224.316z"/>
			</defs>
			<clipPath id="SVGID_139_">
				<use xlink:href="#SVGID_138_"  overflow="visible"/>
			</clipPath>
			<path clip-path="url(#SVGID_139_)" fill="#7CAA46" d="M267.132,213.398c5.825,5.393,12.656,16.387,16.783,36.386
				c0.271,2.463,1.422,1.796,1.458-0.568c0.105-7.077-7.121-27.942-11.672-34.042C269.906,210.087,267.132,213.398,267.132,213.398z
				"/>
		</g>
	</g>
	<g>
		<g>
			<defs>
				<path id="SVGID_140_" d="M273.548,224.316c-0.103-0.02-0.204-0.039-0.305-0.039c-0.489,0-0.957,0.014-1.438,0.017
					c-0.913-0.009-1.827-0.017-2.743-0.017c-4.961,0-9.45,0.445-13.501,1.257c-24.85,3.772-36.021,15.318-43.625,23.847
					c-2.172,2.436-6.924,9.281-3.32,10.417c1.292,0.409,6.343,2.249,13.371,3.139c-5.772,0.612-10.292,1.738-13.371,2.295
					c-3.719,0.671,1.148,7.982,3.32,10.42c9.209,10.329,23.035,26.009,61.307,26.009c60.869,0,141.9-31.145,141.9-38.146
					C415.145,257.062,350.143,225.517,273.548,224.316z"/>
			</defs>
			<clipPath id="SVGID_141_">
				<use xlink:href="#SVGID_140_"  overflow="visible"/>
			</clipPath>
			<path clip-path="url(#SVGID_141_)" fill="#7CAA46" d="M287.738,217.578c5.289,5.918,11.052,17.51,13.27,37.811
				c0.04,2.477,1.246,1.923,1.505-0.429c0.775-7.037-4.447-28.49-8.402-34.994C290.812,214.545,287.738,217.578,287.738,217.578z"/>
		</g>
	</g>
	<g>
		<g>
			<defs>
				<path id="SVGID_142_" d="M273.548,224.316c-0.103-0.02-0.204-0.039-0.305-0.039c-0.489,0-0.957,0.014-1.438,0.017
					c-0.913-0.009-1.827-0.017-2.743-0.017c-4.961,0-9.45,0.445-13.501,1.257c-24.85,3.772-36.021,15.318-43.625,23.847
					c-2.172,2.436-6.924,9.281-3.32,10.417c1.292,0.409,6.343,2.249,13.371,3.139c-5.772,0.612-10.292,1.738-13.371,2.295
					c-3.719,0.671,1.148,7.982,3.32,10.42c9.209,10.329,23.035,26.009,61.307,26.009c60.869,0,141.9-31.145,141.9-38.146
					C415.145,257.062,350.143,225.517,273.548,224.316z"/>
			</defs>
			<clipPath id="SVGID_143_">
				<use xlink:href="#SVGID_142_"  overflow="visible"/>
			</clipPath>
			<path clip-path="url(#SVGID_143_)" fill="#7CAA46" d="M305.317,222.249c5.196,6.001,10.772,17.682,12.672,38.013
				c0,2.479,1.216,1.943,1.512-0.403c0.886-7.022-3.998-28.557-7.851-35.12C308.438,219.265,305.317,222.249,305.317,222.249z"/>
		</g>
	</g>
	<g>
		<g>
			<defs>
				<path id="SVGID_144_" d="M273.548,224.316c-0.103-0.02-0.204-0.039-0.305-0.039c-0.489,0-0.957,0.014-1.438,0.017
					c-0.913-0.009-1.827-0.017-2.743-0.017c-4.961,0-9.45,0.445-13.501,1.257c-24.85,3.772-36.021,15.318-43.625,23.847
					c-2.172,2.436-6.924,9.281-3.32,10.417c1.292,0.409,6.343,2.249,13.371,3.139c-5.772,0.612-10.292,1.738-13.371,2.295
					c-3.719,0.671,1.148,7.982,3.32,10.42c9.209,10.329,23.035,26.009,61.307,26.009c60.869,0,141.9-31.145,141.9-38.146
					C415.145,257.062,350.143,225.517,273.548,224.316z"/>
			</defs>
			<clipPath id="SVGID_145_">
				<use xlink:href="#SVGID_144_"  overflow="visible"/>
			</clipPath>
			<path clip-path="url(#SVGID_145_)" fill="#7CAA46" d="M321.968,224.17c5.195,6.001,10.773,17.682,12.673,38.013
				c0,2.479,1.215,1.943,1.51-0.403c0.887-7.022-3.998-28.556-7.851-35.119C325.088,221.187,321.968,224.17,321.968,224.17z"/>
		</g>
	</g>
	<g>
		<g>
			<defs>
				<path id="SVGID_146_" d="M273.548,224.316c-0.103-0.02-0.204-0.039-0.305-0.039c-0.489,0-0.957,0.014-1.438,0.017
					c-0.913-0.009-1.827-0.017-2.743-0.017c-4.961,0-9.45,0.445-13.501,1.257c-24.85,3.772-36.021,15.318-43.625,23.847
					c-2.172,2.436-6.924,9.281-3.32,10.417c1.292,0.409,6.343,2.249,13.371,3.139c-5.772,0.612-10.292,1.738-13.371,2.295
					c-3.719,0.671,1.148,7.982,3.32,10.42c9.209,10.329,23.035,26.009,61.307,26.009c60.869,0,141.9-31.145,141.9-38.146
					C415.145,257.062,350.143,225.517,273.548,224.316z"/>
			</defs>
			<clipPath id="SVGID_147_">
				<use xlink:href="#SVGID_146_"  overflow="visible"/>
			</clipPath>
			<path clip-path="url(#SVGID_147_)" fill="#7CAA46" d="M337.636,226.042c4.694,5.423,9.735,15.979,11.449,34.351
				c0,2.239,1.1,1.756,1.365-0.364c0.8-6.348-3.612-25.805-7.094-31.735C340.456,223.346,337.636,226.042,337.636,226.042z"/>
		</g>
	</g>
	<g>
		<g>
			<defs>
				<path id="SVGID_148_" d="M273.548,224.316c-0.103-0.02-0.204-0.039-0.305-0.039c-0.489,0-0.957,0.014-1.438,0.017
					c-0.913-0.009-1.827-0.017-2.743-0.017c-4.961,0-9.45,0.445-13.501,1.257c-24.85,3.772-36.021,15.318-43.625,23.847
					c-2.172,2.436-6.924,9.281-3.32,10.417c1.292,0.409,6.343,2.249,13.371,3.139c-5.772,0.612-10.292,1.738-13.371,2.295
					c-3.719,0.671,1.148,7.982,3.32,10.42c9.209,10.329,23.035,26.009,61.307,26.009c60.869,0,141.9-31.145,141.9-38.146
					C415.145,257.062,350.143,225.517,273.548,224.316z"/>
			</defs>
			<clipPath id="SVGID_149_">
				<use xlink:href="#SVGID_148_"  overflow="visible"/>
			</clipPath>
			<path clip-path="url(#SVGID_149_)" fill="#7CAA46" d="M349.328,218.953c4.795,5.538,9.941,16.316,11.692,35.078
				c0,2.287,1.122,1.795,1.396-0.371c0.817-6.48-3.689-26.354-7.246-32.411C352.207,216.197,349.328,218.953,349.328,218.953z"/>
		</g>
	</g>
	<g>
		<g>
			<defs>
				<path id="SVGID_150_" d="M273.548,224.316c-0.103-0.02-0.204-0.039-0.305-0.039c-0.489,0-0.957,0.014-1.438,0.017
					c-0.913-0.009-1.827-0.017-2.743-0.017c-4.961,0-9.45,0.445-13.501,1.257c-24.85,3.772-36.021,15.318-43.625,23.847
					c-2.172,2.436-6.924,9.281-3.32,10.417c1.292,0.409,6.343,2.249,13.371,3.139c-5.772,0.612-10.292,1.738-13.371,2.295
					c-3.719,0.671,1.148,7.982,3.32,10.42c9.209,10.329,23.035,26.009,61.307,26.009c60.869,0,141.9-31.145,141.9-38.146
					C415.145,257.062,350.143,225.517,273.548,224.316z"/>
			</defs>
			<clipPath id="SVGID_151_">
				<use xlink:href="#SVGID_150_"  overflow="visible"/>
			</clipPath>
			<path clip-path="url(#SVGID_151_)" fill="#7CAA46" d="M361.059,219.958c4.524,5.227,9.383,15.4,11.036,33.108
				c0,2.16,1.059,1.692,1.314-0.353c0.772-6.115-3.48-24.871-6.838-30.59C363.776,217.36,361.059,219.958,361.059,219.958z"/>
		</g>
	</g>
	<g>
		<g>
			<defs>
				<path id="SVGID_152_" d="M273.548,224.316c-0.103-0.02-0.204-0.039-0.305-0.039c-0.489,0-0.957,0.014-1.438,0.017
					c-0.913-0.009-1.827-0.017-2.743-0.017c-4.961,0-9.45,0.445-13.501,1.257c-24.85,3.772-36.021,15.318-43.625,23.847
					c-2.172,2.436-6.924,9.281-3.32,10.417c1.292,0.409,6.343,2.249,13.371,3.139c-5.772,0.612-10.292,1.738-13.371,2.295
					c-3.719,0.671,1.148,7.982,3.32,10.42c9.209,10.329,23.035,26.009,61.307,26.009c60.869,0,141.9-31.145,141.9-38.146
					C415.145,257.062,350.143,225.517,273.548,224.316z"/>
			</defs>
			<clipPath id="SVGID_153_">
				<use xlink:href="#SVGID_152_"  overflow="visible"/>
			</clipPath>
			<path clip-path="url(#SVGID_153_)" fill="#7CAA46" d="M373.502,226.599c4.032,4.654,8.358,13.719,9.833,29.493
				c0,1.923,0.942,1.508,1.172-0.312c0.688-5.45-3.103-22.156-6.091-27.251C375.923,224.284,373.502,226.599,373.502,226.599z"/>
		</g>
	</g>
	<g>
		<g>
			<defs>
				<path id="SVGID_154_" d="M273.548,224.316c-0.103-0.02-0.204-0.039-0.305-0.039c-0.489,0-0.957,0.014-1.438,0.017
					c-0.913-0.009-1.827-0.017-2.743-0.017c-4.961,0-9.45,0.445-13.501,1.257c-24.85,3.772-36.021,15.318-43.625,23.847
					c-2.172,2.436-6.924,9.281-3.32,10.417c1.292,0.409,6.343,2.249,13.371,3.139c-5.772,0.612-10.292,1.738-13.371,2.295
					c-3.719,0.671,1.148,7.982,3.32,10.42c9.209,10.329,23.035,26.009,61.307,26.009c60.869,0,141.9-31.145,141.9-38.146
					C415.145,257.062,350.143,225.517,273.548,224.316z"/>
			</defs>
			<clipPath id="SVGID_155_">
				<use xlink:href="#SVGID_154_"  overflow="visible"/>
			</clipPath>
			<path clip-path="url(#SVGID_155_)" fill="#7CAA46" d="M388.301,235.697c3.586,4.141,7.433,12.197,8.74,26.223
				c0,1.71,0.839,1.343,1.041-0.276c0.611-4.847-2.756-19.699-5.414-24.228C390.452,233.638,388.301,235.697,388.301,235.697z"/>
		</g>
	</g>
	<g>
		<g>
			<defs>
				<path id="SVGID_156_" d="M273.548,224.316c-0.103-0.02-0.204-0.039-0.305-0.039c-0.489,0-0.957,0.014-1.438,0.017
					c-0.913-0.009-1.827-0.017-2.743-0.017c-4.961,0-9.45,0.445-13.501,1.257c-24.85,3.772-36.021,15.318-43.625,23.847
					c-2.172,2.436-6.924,9.281-3.32,10.417c1.292,0.409,6.343,2.249,13.371,3.139c-5.772,0.612-10.292,1.738-13.371,2.295
					c-3.719,0.671,1.148,7.982,3.32,10.42c9.209,10.329,23.035,26.009,61.307,26.009c60.869,0,141.9-31.145,141.9-38.146
					C415.145,257.062,350.143,225.517,273.548,224.316z"/>
			</defs>
			<clipPath id="SVGID_157_">
				<use xlink:href="#SVGID_156_"  overflow="visible"/>
			</clipPath>
			<path clip-path="url(#SVGID_157_)" fill="#7CAA46" d="M251.094,208.02c1.452,2.292,11.969,10.181,18.093,35.752
				c0.362,2.451,1.857,2.171,1.384-1.1c-0.531-3.653-5.768-23.999-13.384-32.99C253.085,204.842,251.094,208.02,251.094,208.02z"/>
		</g>
	</g>
	<g>
		<g>
			<defs>
				<path id="SVGID_158_" d="M273.548,224.316c-0.103-0.02-0.204-0.039-0.305-0.039c-0.489,0-0.957,0.014-1.438,0.017
					c-0.913-0.009-1.827-0.017-2.743-0.017c-4.961,0-9.45,0.445-13.501,1.257c-24.85,3.772-36.021,15.318-43.625,23.847
					c-2.172,2.436-6.924,9.281-3.32,10.417c1.292,0.409,6.343,2.249,13.371,3.139c-5.772,0.612-10.292,1.738-13.371,2.295
					c-3.719,0.671,1.148,7.982,3.32,10.42c9.209,10.329,23.035,26.009,61.307,26.009c60.869,0,141.9-31.145,141.9-38.146
					C415.145,257.062,350.143,225.517,273.548,224.316z"/>
			</defs>
			<clipPath id="SVGID_159_">
				<use xlink:href="#SVGID_158_"  overflow="visible"/>
			</clipPath>
			<path clip-path="url(#SVGID_159_)" fill="#A82C7E" d="M420.195,262.967c-156.458,67.1-215.68,2.094-215.68,2.094
				C276.317,379.648,420.195,262.967,420.195,262.967z"/>
		</g>
	</g>
</g>
<g>
	<path fill="#FFFFFF" d="M259.418,250.143c0,7.334-5.945,13.279-13.277,13.279s-13.277-5.945-13.277-13.279
		c0-7.331,5.945-13.275,13.277-13.275S259.418,242.812,259.418,250.143z"/>
	<path fill="#00A79D" d="M251.169,249.232c0,3.559-2.883,6.438-6.439,6.438c-3.559,0-6.438-2.882-6.438-6.438
		c0-3.553,2.882-6.438,6.438-6.438C248.286,242.793,251.169,245.68,251.169,249.232z"/>
	<circle fill="#231F20" cx="244.449" cy="249.088" r="4.223"/>
</g>
<path fill="#560F70" d="M258.453,226.469c0,0,13.67-25.641,33.137-24.733c19.467,0.904,37.544,30.146,37.544,30.146
	s-21.773-4.209-33.802-5.129C276.475,225.307,258.453,226.469,258.453,226.469z"/>
<path fill="#560F70" d="M277.188,286.813c0,0,21.635,26.068,24.477,28.793c1.049,1.007,3.167,2.379,6.261,2.347
	c6.3-0.062,21.708-0.546,21.174-4.279c-0.604-4.227-48.001-26.858-48.001-26.858S273.873,282.354,277.188,286.813z"/>
<path fill="#87235D" d="M410.115,272.222"/>
</svg>
